<svg fill="none" xmlns="http://www.w3.org/2000/svg" viewBox="0 0 600 520">
  <rect x="272.2" y="9" width="260.71" height="260.71" rx="24" transform="rotate(67.7 272.2 9)" fill="#000"/>
  <rect x="452.2" y="11" width="185.85" height="185.85" rx="24" transform="rotate(74.62 452.2 11)" fill="#000"/>
  <rect x="186.01" y="201" width="185.85" height="185.85" rx="24" transform="rotate(52.79 186.01 201)" fill="#000"/>
  <path fill-rule="evenodd" clip-rule="evenodd" d="M341 348l10.86 6.41-2.75 1.83 2.89 3.93-2.75 1.83-2.89-3.93-2.75 1.84L341 348z" fill="#1A1A1A"/>
  <g filter="url(#filter0_d)">
    <path d="M168 99a4 4 0 014-4h295a4 4 0 014 4v374a4 4 0 01-4 4H172a4 4 0 01-4-4V99z" fill="#fff"/>
    <path d="M169 99a3 3 0 013-3h295a3 3 0 013 3v374a3 3 0 01-3 3H172a3 3 0 01-3-3V99z" stroke="#E8E8E8" stroke-width="2"/>
  </g>
  <path d="M193.85 125.33a2.37 2.37 0 012.37-2.37h188.84a2.37 2.37 0 010 4.75H196.22a2.37 2.37 0 01-2.37-2.38zM272 318.5a2.5 2.5 0 012.5-2.5h130a2.5 2.5 0 110 5h-130a2.5 2.5 0 01-2.5-2.5zM193.85 138a2.37 2.37 0 012.37-2.38h209.94a2.37 2.37 0 010 4.75H196.22a2.37 2.37 0 01-2.37-2.38zM272 331c0-1.1.9-2 2-2h153a2 2 0 110 4H274a2 2 0 01-2-2zM193.85 151.7a2.37 2.37 0 012.37-2.37h151.92a2.37 2.37 0 010 4.75H196.22a2.37 2.37 0 01-2.37-2.37zM272 344.75a2.37 2.37 0 012.37-2.38H426.3a2.37 2.37 0 010 4.75H274.37a2.37 2.37 0 01-2.37-2.37zM193.85 191.8a2.37 2.37 0 012.37-2.38H443.1a2.37 2.37 0 010 4.75H196.22a2.37 2.37 0 01-2.37-2.37zM193.85 384.84a2.37 2.37 0 012.37-2.38H443.1a2.37 2.37 0 010 4.75H196.22a2.37 2.37 0 01-2.37-2.37zM193.85 202.87a2.37 2.37 0 012.37-2.37h236.32a2.37 2.37 0 010 4.75H196.22a2.37 2.37 0 01-2.37-2.38zM193.85 395.92a2.37 2.37 0 012.37-2.38h236.32a2.37 2.37 0 010 4.75H196.22a2.37 2.37 0 01-2.37-2.38zM193.85 213.95a2.37 2.37 0 012.37-2.37h241.6a2.37 2.37 0 010 4.75h-241.6a2.37 2.37 0 01-2.37-2.38zM193.85 407a2.37 2.37 0 012.37-2.38h241.6a2.37 2.37 0 010 4.75h-241.6a2.37 2.37 0 01-2.37-2.38zM193.85 225.03a2.37 2.37 0 012.37-2.38h241.6a2.37 2.37 0 010 4.75h-241.6a2.37 2.37 0 01-2.37-2.37zM193.85 236.1a2.37 2.37 0 012.37-2.37H422a2.37 2.37 0 010 4.75H196.22a2.37 2.37 0 01-2.37-2.37zM193.85 247.18a2.37 2.37 0 012.37-2.37H422a2.37 2.37 0 110 4.75H196.22a2.37 2.37 0 01-2.37-2.38zM193.85 258.26a2.37 2.37 0 012.37-2.37H422a2.37 2.37 0 110 4.74H196.22a2.37 2.37 0 01-2.37-2.37zM193.85 269.34a2.37 2.37 0 012.37-2.38H422a2.37 2.37 0 010 4.75H196.22a2.37 2.37 0 01-2.37-2.37zM272 296.24a2.37 2.37 0 012.37-2.37h104.45a2.37 2.37 0 010 4.75H274.37a2.37 2.37 0 01-2.37-2.38zM272 355.5a2.5 2.5 0 012.5-2.5h120a2.5 2.5 0 110 5h-120a2.5 2.5 0 01-2.5-2.5zM272 307.32a2.37 2.37 0 012.37-2.38h104.45a2.37 2.37 0 010 4.75H274.37a2.37 2.37 0 01-2.37-2.37z" fill="#F4F4F4"/>
  <rect x="194" y="290" width="65" height="72" rx="6" fill="#F4F4F4"/>
  <rect x="208" y="430" width="41" height="41" rx="4" fill="#000"/>
  <path fill-rule="evenodd" clip-rule="evenodd" d="M232.42 440.75H218.75V456.69h6.83v4.56H239.25v-17.08h-6.84v-3.42zm5.7 4.56v14.8h-11.4v-3.42h5.7v-11.38h5.7zm-6.84-1.14v-2.28h-11.4v13.67H231.29v-11.39zm-10.25 5.7a4.56 4.56 0 109.11 0 4.56 4.56 0 00-9.11 0zm7.78 1.13a3.42 3.42 0 11-3.8-4.5v4.5h3.8zm.2-1.14c0-1.7-1.24-3.1-2.86-3.37v3.37H229z" fill="#fff"/>
  <rect x="156" y="471" width="41" height="41" rx="4" fill="#000"/>
  <path fill-rule="evenodd" clip-rule="evenodd" d="M168.51 483.51l2.13 8.49-2.13 8.49 8.5-2.12 8.48 2.12-2.12-8.49 2.12-8.49-8.49 2.12-8.49-2.12zm-1.76-1.76l10.25 2.56 10.25-2.56-2.56 10.25 2.56 10.25-10.25-2.56-10.25 2.56 2.56-10.25-2.56-10.25z" fill="#fff"/>
  <rect x="143" y="397" width="54" height="54" rx="4" fill="#000"/>
  <path fill-rule="evenodd" clip-rule="evenodd" d="M164.43 431.86a19.2 19.2 0 005.6 3.84 17.83 17.83 0 005.55-3.66c3.63-3.51 5.91-8.5 6.2-15.32l-5.62-2.1-6.75-2.54h1.18l-6.75 2.53-4.64 1.74-.98.37c.3 6.6 2.58 11.55 6.21 15.14zm-7.93-16.3l13.5-5.06 13.5 5.06c-.16 18.1-13.5 21.94-13.5 21.94s-13.34-4.35-13.5-21.94z" fill="#fff"/>
  <rect x="336" y="147" width="233" height="91" rx="6.39" fill="#ccc"/>
  <path d="M355.7 166.85a2.85 2.85 0 012.85-2.85h31.35l11.4 11.4v42.75a2.85 2.85 0 01-2.85 2.85h-39.9a2.85 2.85 0 01-2.85-2.85v-51.3z" fill="#fff"/>
  <path fill-rule="evenodd" clip-rule="evenodd" d="M358.55 219.57h39.9c.79 0 1.43-.63 1.43-1.42v-42.16l-10.57-10.56h-30.76c-.79 0-1.42.63-1.42 1.42v51.3c0 .79.63 1.42 1.42 1.42zM389.9 164h-31.35a2.85 2.85 0 00-2.85 2.85v51.3a2.85 2.85 0 002.85 2.85h39.9a2.85 2.85 0 002.85-2.85V175.4L389.9 164z" fill="#E8E8E8"/>
  <path d="M389.9 164l11.4 11.4h-11.4V164z" fill="#E8E8E8"/>
  <rect x="350.25" y="192.47" width="33.7" height="20" rx="2.85" fill="#000"/>
  <path d="M354.55 208.47v-10.22h3.51c.57 0 1.1.06 1.59.18.49.1.92.28 1.28.55.37.25.66.59.87 1.02.21.41.32.93.32 1.55 0 .6-.1 1.11-.32 1.55-.21.44-.5.8-.87 1.08-.36.28-.79.5-1.27.63s-.99.2-1.53.2h-1.27v3.47h-2.3zm2.3-5.3H358c1.25 0 1.88-.54 1.88-1.62 0-.54-.17-.91-.5-1.13a2.63 2.63 0 00-1.45-.33h-1.06v3.09zM363.89 208.47v-10.22h2.88c.79 0 1.5.1 2.12.3.63.2 1.17.51 1.62.93.44.4.79.93 1.03 1.56.24.64.36 1.4.36 2.28 0 .88-.12 1.64-.36 2.29a4.32 4.32 0 01-1.02 1.61c-.44.42-.97.73-1.58.94-.6.21-1.29.31-2.04.31h-3.01zm2.3-1.86h.44c.44 0 .84-.06 1.2-.17.35-.12.65-.3.9-.55.25-.26.45-.6.58-1.02.15-.42.22-.94.22-1.55 0-.6-.07-1.11-.22-1.52a2.33 2.33 0 00-.58-.99 2.1 2.1 0 00-.9-.53 4.2 4.2 0 00-1.2-.16h-.44v6.49zM373.84 208.47v-10.22h6.44v1.95h-4.13v2.37h3.54v1.94h-3.55v3.97h-2.3zM469.9 121.95a3.95 3.95 0 013.95-3.95h43.45l15.8 15.8v59.25a3.95 3.95 0 01-3.95 3.95h-55.3a3.95 3.95 0 01-3.95-3.95v-71.1z" fill="#fff"/>
  <path fill-rule="evenodd" clip-rule="evenodd" d="M473.85 195.03h55.3c1.1 0 1.98-.89 1.98-1.98v-58.43l-14.65-14.65h-42.63c-1.09 0-1.98.89-1.98 1.98v71.1c0 1.1.89 1.97 1.98 1.97zM517.3 118h-43.45a3.95 3.95 0 00-3.95 3.95v71.1a3.95 3.95 0 003.95 3.95h55.3a3.95 3.95 0 003.95-3.95V133.8L517.3 118z" fill="#E8E8E8"/>
  <path d="M517.3 118l15.8 15.8h-15.8V118z" fill="#E8E8E8"/>
  <rect x="461.74" y="157.82" width="49.9" height="27" rx="3.95" fill="#000"/>
  <path d="M467.72 178.82v-14.16h4a9.7 9.7 0 012.93.41 5.5 5.5 0 013.67 3.45c.33.9.5 1.94.5 3.16 0 1.21-.17 2.27-.5 3.17-.33.9-.8 1.64-1.41 2.24a5.86 5.86 0 01-2.2 1.3c-.84.29-1.78.44-2.82.44h-4.17zm3.19-2.58h.6c.62 0 1.17-.08 1.66-.24.5-.16.91-.41 1.26-.76.35-.36.62-.83.8-1.41.2-.58.3-1.3.3-2.15 0-.84-.1-1.55-.3-2.11a3.25 3.25 0 00-.8-1.37c-.35-.35-.77-.6-1.26-.74a5.84 5.84 0 00-1.65-.21h-.61v8.99zM487.26 179.09a5.84 5.84 0 01-4.65-1.98c-.56-.64-1-1.41-1.32-2.33a9.8 9.8 0 01-.46-3.1c0-1.16.16-2.19.46-3.09a6.4 6.4 0 011.32-2.28 5.5 5.5 0 012.02-1.41c.8-.33 1.68-.5 2.63-.5.96 0 1.83.17 2.61.5.8.32 1.48.79 2.04 1.41.57.62 1 1.4 1.3 2.3.33.9.49 1.92.49 3.07a9.4 9.4 0 01-.48 3.1 6.6 6.6 0 01-1.3 2.33 5.78 5.78 0 01-2.05 1.48c-.78.33-1.65.5-2.6.5zm0-2.76c.98 0 1.74-.42 2.3-1.24.57-.84.85-1.98.85-3.41 0-1.42-.28-2.53-.84-3.33a2.68 2.68 0 00-2.3-1.2c-.98 0-1.74.4-2.3 1.2-.57.8-.86 1.9-.86 3.33 0 1.43.29 2.57.85 3.4a2.65 2.65 0 002.3 1.25zM502.27 179.09a6.23 6.23 0 01-4.65-1.85 6.59 6.59 0 01-1.41-2.26 8.8 8.8 0 01-.52-3.15c0-1.17.18-2.22.54-3.13.36-.93.84-1.7 1.45-2.34a6.14 6.14 0 012.13-1.46c.81-.33 1.67-.5 2.57-.5.9 0 1.73.19 2.45.56a6.6 6.6 0 011.8 1.29l-1.69 2.04a5 5 0 00-1.15-.8 3.01 3.01 0 00-2.72 0c-.42.2-.79.5-1.1.88-.31.4-.56.87-.74 1.44-.18.56-.27 1.2-.27 1.91 0 1.46.32 2.6.94 3.41.62.8 1.46 1.2 2.5 1.2.58 0 1.1-.13 1.54-.37a4.9 4.9 0 001.22-.96l1.7 2a5.75 5.75 0 01-4.6 2.09zM449.2 211.1a3.1 3.1 0 013.1-3.1h34.1l12.4 12.4v46.5a3.1 3.1 0 01-3.1 3.1h-43.4a3.1 3.1 0 01-3.1-3.1v-55.8z" fill="#fff"/>
  <path fill-rule="evenodd" clip-rule="evenodd" d="M452.3 268.45h43.4c.86 0 1.55-.7 1.55-1.55v-45.86l-11.5-11.49H452.3c-.86 0-1.55.7-1.55 1.55v55.8c0 .86.7 1.55 1.55 1.55zM486.4 208h-34.1a3.1 3.1 0 00-3.1 3.1v55.8a3.1 3.1 0 003.1 3.1h43.4a3.1 3.1 0 003.1-3.1v-46.5L486.4 208z" fill="#E8E8E8"/>
  <path d="M486.4 208l12.4 12.4h-12.4V208z" fill="#E8E8E8"/>
  <rect x="443.5" y="239.35" width="36.2" height="21" rx="3.1" fill="#000"/>
  <path d="M448.13 256.35v-11.12h3.82c.62 0 1.2.07 1.73.2.53.1 1 .3 1.4.59.4.27.7.64.93 1.1.24.46.36 1.02.36 1.7 0 .64-.12 1.2-.36 1.68a3.2 3.2 0 01-.94 1.18c-.4.3-.85.53-1.38.68-.52.15-1.08.22-1.67.22h-1.38v3.77h-2.5zm2.51-5.76h1.23c1.36 0 2.05-.6 2.05-1.78 0-.58-.19-.99-.55-1.22a2.87 2.87 0 00-1.57-.36h-1.16v3.36zM458.3 256.35v-11.12h3.81c.62 0 1.19.07 1.72.2.54.1 1 .3 1.4.59.4.27.71.64.94 1.1.24.46.36 1.02.36 1.7 0 .64-.12 1.2-.36 1.68a3.2 3.2 0 01-.94 1.18c-.4.3-.86.53-1.38.68-.52.15-1.08.22-1.67.22h-1.38v3.77h-2.5zm2.5-5.76h1.22c1.37 0 2.05-.6 2.05-1.78 0-.58-.18-.99-.54-1.22a2.87 2.87 0 00-1.57-.36h-1.16v3.36zM470.38 256.35v-9h-3.05v-2.12h8.63v2.12h-3.06v9h-2.52zM521.6 210.3a2.3 2.3 0 012.3-2.3h25.3l9.2 9.2v34.5a2.3 2.3 0 01-2.3 2.3h-32.2a2.3 2.3 0 01-2.3-2.3v-41.4z" fill="#fff"/>
  <path fill-rule="evenodd" clip-rule="evenodd" d="M523.9 252.85h32.2c.64 0 1.15-.51 1.15-1.15v-34.02l-8.52-8.53H523.9c-.63 0-1.15.51-1.15 1.15v41.4c0 .64.52 1.15 1.15 1.15zM549.2 208h-25.3a2.3 2.3 0 00-2.3 2.3v41.4a2.3 2.3 0 002.3 2.3h32.2a2.3 2.3 0 002.3-2.3v-34.5l-9.2-9.2z" fill="#E8E8E8"/>
  <path d="M549.2 208l9.2 9.2h-9.2V208z" fill="#E8E8E8"/>
  <rect x="516.85" y="231.05" width="25.6" height="16" rx="2.3" fill="#000"/>
  <path d="M519.6 243.05l2.28-4.24-2.15-4h2.08l.72 1.55.27.62.32.7h.05a20.89 20.89 0 01.53-1.32l.66-1.56h1.99l-2.14 4.1 2.28 4.15h-2.08l-.82-1.68-.3-.65-.32-.7h-.05a15.47 15.47 0 01-.56 1.35l-.77 1.68h-2zM527.6 243.05v-8.25h1.86v6.68h3.27v1.57h-5.13zM536.31 243.2a4.33 4.33 0 01-3.05-1.19l1.06-1.27c.3.25.62.45.98.61.36.16.72.25 1.06.25.39 0 .68-.08.86-.22.2-.14.3-.34.3-.58a.67.67 0 00-.33-.57 12.34 12.34 0 00-.86-.42l-1.08-.45a3.1 3.1 0 01-1.15-.8c-.15-.19-.28-.4-.37-.63a2.3 2.3 0 01.68-2.56c.26-.23.57-.4.93-.53a3.77 3.77 0 013.85.9l-.96 1.17a3.41 3.41 0 00-.8-.48 2.22 2.22 0 00-.9-.17c-.32 0-.58.06-.78.2a.62.62 0 00-.27.54c0 .13.02.24.08.33.07.09.16.17.27.24a4.77 4.77 0 00.9.4l1.06.44c.5.2.9.48 1.19.83.3.36.44.82.44 1.4a2.33 2.33 0 01-.82 1.8 3.1 3.1 0 01-.97.56c-.4.13-.83.2-1.32.2z" fill="#fff"/>
  <path d="M439.5 196.17l-8.75-7.97 1.3-1.2L443 197l-10.95 10-1.3-1.2 8.76-7.97H415v-1.66h24.5z" fill="#9E9E9E"/>
  <path opacity=".3" fill-rule="evenodd" clip-rule="evenodd" d="M539.32 363.94l19.46 27.8-22.65-4a1 1 0 01-.8-1.15l3.99-22.65zM466.04 387.17l27.8 19.47-22.64 3.99a1 1 0 01-1.16-.81l-4-22.65z" fill="#fff"/>
  <path fill-rule="evenodd" clip-rule="evenodd" d="M143.84 340.6a1 1 0 01.88-1.1 29.1 29.1 0 003.25-.6 1 1 0 11.47 1.95c-1.12.27-2.28.48-3.48.63a1 1 0 01-1.12-.87zm3.33-185.56c.07 2.23.17 4.45.37 6.64a1 1 0 01-2 .17c-.2-2.24-.3-4.5-.37-6.75a1 1 0 112-.06zM146 144.89a1 1 0 01-1.03-.97c-.03-1.13-.07-2.24-.13-3.33a51.49 51.49 0 01-.06-3.3 1 1 0 112 .02c-.02 1.1 0 2.16.06 3.18.06 1.1.1 2.23.13 3.37a1 1 0 01-.97 1.03zm2.24 26.9a1 1 0 011.25.66c.32 1.05.7 2.07 1.1 3.06.48 1.11.88 2.25 1.25 3.38a1 1 0 11-1.9.62c-.36-1.1-.74-2.18-1.18-3.22a34.74 34.74 0 01-1.18-3.25 1 1 0 01.66-1.25zm-1.64-44.26a1 1 0 01-.82-1.15c.34-2.11.78-4.27 1.3-6.43a1 1 0 111.95.47 85.72 85.72 0 00-1.28 6.28 1 1 0 01-1.15.83zm11.1 208.2a1 1 0 01.23-1.4 34.95 34.95 0 005-4.37 1 1 0 111.45 1.38 36.88 36.88 0 01-5.29 4.62 1 1 0 01-1.4-.23zm-5.23-139.27c.05 2.07.2 4.19.43 6.26a1 1 0 11-1.99.22c-.23-2.12-.39-4.3-.44-6.43a1 1 0 112-.05zm1 15.84a1 1 0 011.21.73c.28 1.12.56 2.12.85 2.98.33 1 .68 2.01 1.04 3.03a1 1 0 11-1.89.67l-1.05-3.07c-.3-.92-.6-1.97-.89-3.13a1 1 0 01.73-1.21zm-1.36-25.37a1 1 0 01-.72-1.22 14.6 14.6 0 013.18-6.16 1 1 0 011.5 1.32 12.57 12.57 0 00-2.74 5.34 1 1 0 01-1.22.72zm2.55 2.31a1 1 0 011.38.3c.6.9 1.28 1.75 2.09 2.54.5.48 1.07.92 1.72 1.32a1 1 0 11-1.05 1.7c-.76-.47-1.45-1-2.06-1.59-.93-.9-1.7-1.86-2.37-2.88a1 1 0 01.29-1.39zm-3.76-78.44a1 1 0 01-.57-1.3 76.94 76.94 0 012.6-6.03 1 1 0 111.8.87 75.15 75.15 0 00-2.54 5.88 1 1 0 01-1.29.58zm8.24 117.67a1 1 0 011.3.53c.84 1.97 1.7 3.93 2.6 5.87a1 1 0 11-1.8.84 200.6 200.6 0 01-2.64-5.93 1 1 0 01.54-1.31zm10.8 93.9a1 1 0 01-.35-1.37 73.33 73.33 0 003.16-5.97 1 1 0 111.81.86 75.25 75.25 0 01-3.25 6.13 1 1 0 01-1.37.35zm-3.5-78.34a1 1 0 011.36.42c.5.95 1.01 1.9 1.52 2.82a190 190 0 011.28 2.34 1 1 0 01-1.76.94c-.42-.78-.84-1.55-1.27-2.31l-1.54-2.85a1 1 0 01.41-1.35zm-7.7-148.61a1 1 0 01-.22-1.4 45.36 45.36 0 014.27-5.07 1 1 0 111.43 1.4 43.31 43.31 0 00-4.08 4.85 1 1 0 01-1.4.22zm5.48 80.33a1 1 0 01.92-1.07c1.15-.08 2.32-.08 3.5 0 1.27.1 2.4.37 3.38.8a1 1 0 11-.81 1.83 8.02 8.02 0 00-2.72-.63c-1.09-.08-2.16-.08-3.2 0a1 1 0 01-1.07-.93zm1.64 20.72a1 1 0 011.06-.95c1.55.09 3.05-.07 4.36-.49a1 1 0 01.6 1.91c-1.58.5-3.33.67-5.07.58a1 1 0 01-.95-1.05zm7.38 60.61a1 1 0 011.32.5 112.8 112.8 0 012.12 4.9 1 1 0 01-1.85.75c-.66-1.63-1.35-3.24-2.08-4.82a1 1 0 01.49-1.33zm4.38 48.76a1 1 0 01-.61-1.28c.38-1.08.74-2.16 1.09-3.22.27-.83.51-1.65.72-2.48a1 1 0 011.94.5c-.22.87-.48 1.74-.76 2.6a153.6 153.6 0 01-1.1 3.27 1 1 0 01-1.28.6zm.75-35.6a1 1 0 011.24.68c.5 1.73.94 3.47 1.31 5.22a1 1 0 01-1.96.4 69.8 69.8 0 00-1.27-5.06 1 1 0 01.69-1.24zm2.7 21.15a1 1 0 01-.94-1.06c.1-1.72.09-3.46 0-5.19a1 1 0 111.99-.1c.1 1.8.1 3.6 0 5.4a1 1 0 01-1.05.95zm-4.48-99.88a1 1 0 01-.78-1.18c.13-.63.19-1.34.14-2.13a37.13 37.13 0 00-.27-3.05 1 1 0 111.98-.27c.15 1.07.23 2.15.29 3.21.05.95-.01 1.82-.18 2.64a1 1 0 01-1.18.78zm-5.31-107.8a1 1 0 01.46-1.33c1.01-.49 2.05-.91 3.12-1.27a83.6 83.6 0 014.04-1.25 1 1 0 11.54 1.92c-1.3.37-2.6.77-3.94 1.22-.99.33-1.95.73-2.89 1.18a1 1 0 01-1.33-.46zm20.59-5.31a1 1 0 01.9-1.09c1.38-.13 2.78-.23 4.21-.3a1 1 0 11.1 1.99c-1.4.07-2.78.17-4.12.3a1 1 0 01-1.1-.9zM200.68 87.05a1.5 1.5 0 01-.49-2.06 20.59 20.59 0 017.17-7.29 21.77 21.77 0 01-7.12-6.62 1.5 1.5 0 012.52-1.62c2.3 3.58 6.29 5.9 7.95 6.6.04.01.09.03.13.06a1.51 1.51 0 01.9 2.42c-.1.14-.27.3-.35.38l-.02.02a1.5 1.5 0 01-.45.3c-3.68 1.62-6.07 3.92-8.17 7.32a1.5 1.5 0 01-2.07.5z" fill="#CDF"/>
  <path fill-rule="evenodd" clip-rule="evenodd" d="M141.1 346.93l-3.39 10.47a7.17 7.17 0 004.57 8.95 6.95 6.95 0 008.9-4.4 7.17 7.17 0 00-9.61-8.76l2.64-8.15 15.47-9.4-1.6-.32a4.7 4.7 0 00-3.38.57l-9.37 5.7 3.38-10.43a4.7 4.7 0 00-.21-3.43l-.69-1.47-5.58 17.21-7.32 4.45a7.17 7.17 0 00-10.75-7.33 6.95 6.95 0 00-2.22 9.67 7.17 7.17 0 009.76 2.39l9.4-5.72zm-17.16 2.12a4.78 4.78 0 006.5 1.59 4.63 4.63 0 001.49-6.45 4.78 4.78 0 00-6.51-1.58 4.63 4.63 0 00-1.48 6.44zM143 364.13a4.64 4.64 0 005.93-2.93 4.78 4.78 0 00-3.05-5.97 4.64 4.64 0 00-5.93 2.93 4.78 4.78 0 003.05 5.97z" fill="#fff"/>
  <path d="M137.71 357.4l-.53-.17.53.17zm3.4-10.47l.53.17.47-1.44-1.3.79.3.48zm1.17 19.42l.18-.53-.18.53zm8.9-4.4l.53.18-.53-.17zm-4.57-8.94l.18-.53-.18.53zm-5.04.18l-.53-.18-.38 1.17 1.13-.48-.22-.51zm2.64-8.15l-.29-.48-.18.11-.06.2.53.17zm15.47-9.4l.29.48 1.22-.74-1.4-.29-.11.55zm-1.6-.32l.12-.55-.11.55zm-3.38.57l-.3-.47.3.47zm-9.37 5.7l-.53-.17-.47 1.43 1.3-.78-.3-.48zm3.38-10.43l-.53-.17.53.17zm-.21-3.43l.5-.24-.5.24zm-.69-1.47l.51-.24-.6-1.29-.44 1.36.53.17zm-5.58 17.21l.29.48.18-.1.06-.2-.53-.18zm-7.32 4.45l-.55-.1-.2 1.22 1.04-.64-.29-.48zm-.98-4.94l.47-.3-.47.3zm-9.77-2.38l.3.47-.3-.47zm-2.22 9.66l.47-.3-.47.3zm9.76 2.39l.3.48-.3-.48zm6.55 4.92l3.4-10.47-1.07-.35-3.4 10.48 1.06.34zm4.2 8.25a6.61 6.61 0 01-4.2-8.25l-1.07-.34a7.73 7.73 0 004.92 9.65l.36-1.06zm8.2-4.04a6.4 6.4 0 01-8.2 4.04l-.35 1.06c4 1.36 8.31-.76 9.6-4.75l-1.06-.35zm-4.22-8.24a6.61 6.61 0 014.21 8.24l1.07.35a7.73 7.73 0 00-4.92-9.65l-.36 1.06zm-4.64.16c1.4-.6 3.05-.7 4.64-.16l.36-1.06a7.6 7.6 0 00-5.44.19l.44 1.03zm1.89-8.83l-2.64 8.14 1.06.35 2.64-8.15-1.06-.34zm15.7-9.7l-15.46 9.4.58.95 15.47-9.4-.59-.96zm-1.4.7l1.58.32.23-1.1-1.59-.32-.22 1.1zm-3 .5a4.14 4.14 0 013-.5l.22-1.1a5.26 5.26 0 00-3.8.65l.59.95zm-9.36 5.7l9.37-5.7-.58-.95-9.37 5.69.58.96zm2.56-11.08l-3.38 10.43 1.06.34 3.39-10.43-1.07-.34zm-.2-3.03c.45.96.52 2.04.2 3.03l1.07.34c.4-1.25.32-2.63-.25-3.84l-1.01.47zm-.67-1.46l.68 1.46 1.01-.47-.68-1.47-1.01.48zm-4.55 17.15l5.59-17.22-1.07-.34-5.58 17.21 1.06.35zm-7.56 4.75l7.32-4.45-.58-.95-7.32 4.44.58.96zm-1.75-5.13a6.5 6.5 0 01.91 4.56l1.1.19a7.61 7.61 0 00-1.06-5.34l-.95.6zm-9-2.2a6.61 6.61 0 019 2.2l.95-.6a7.73 7.73 0 00-10.53-2.55l.58.95zm-2.04 8.9a6.4 6.4 0 012.05-8.9l-.59-.95a7.51 7.51 0 00-2.4 10.44l.94-.6zm9 2.2a6.61 6.61 0 01-9-2.2l-.95.6a7.73 7.73 0 0010.53 2.56l-.58-.96zm9.4-5.72l-9.4 5.72.58.95 9.41-5.71-.58-.96zm-17.35 2.9a5.34 5.34 0 007.28 1.77l-.59-.96a4.22 4.22 0 01-5.74-1.4l-.95.59zm7.28 1.77a5.2 5.2 0 001.66-7.22l-.95.59a4.08 4.08 0 01-1.3 5.67l.59.96zm1.66-7.22a5.34 5.34 0 00-7.27-1.77l.58.95a4.22 4.22 0 015.74 1.41l.95-.6zm-7.27-1.77a5.2 5.2 0 00-1.67 7.22l.95-.6a4.07 4.07 0 011.3-5.67l-.58-.95zm17.69 22.53a5.2 5.2 0 006.64-3.29l-1.06-.35a4.08 4.08 0 01-5.22 2.58l-.36 1.06zm6.64-3.29a5.34 5.34 0 00-3.4-6.67l-.36 1.06c2.2.74 3.4 3.1 2.7 5.26l1.06.35zm-3.4-6.67a5.2 5.2 0 00-6.64 3.29l1.07.34a4.08 4.08 0 015.21-2.57l.36-1.06zm-6.64 3.29a5.34 5.34 0 003.4 6.67l.36-1.06a4.22 4.22 0 01-2.7-5.27l-1.06-.34z" fill="#000"/>
  <path fill-rule="evenodd" clip-rule="evenodd" d="M460.66 489.7v5.52H459v-6.6H459v-1.65h8.26v1.64h-5.36a13.13 13.13 0 0010.28 4.96c7.28 0 13.17-5.91 13.17-13.2a13.2 13.2 0 00-5.86-11l.91-1.37c3.98 2.66 6.6 7.2 6.6 12.36 0 8.2-6.63 14.86-14.82 14.86-4.65 0-8.8-2.15-11.52-5.52zM437.87 490.38a.88.88 0 11-1.25-1.25l1.87-1.87a.88.88 0 011.25 1.25l-1.87 1.87zm-5.61-1.87a.88.88 0 011.25-1.25l1.87 1.87a.88.88 0 11-1.25 1.25l-1.87-1.87zm4.36 4.36a.88.88 0 111.25-1.25l1.87 1.87a.88.88 0 01-1.25 1.25l-1.87-1.87zm-4.36 1.87c.34.35.9.35 1.25 0l1.87-1.87a.88.88 0 10-1.25-1.25l-1.87 1.87a.88.88 0 000 1.25zM452.87 456.38a.88.88 0 11-1.25-1.25l1.87-1.87a.88.88 0 011.25 1.25l-1.87 1.87zm-5.61-1.87a.88.88 0 011.25-1.25l1.87 1.87a.88.88 0 11-1.25 1.25l-1.87-1.87zm4.36 4.36a.88.88 0 111.25-1.25l1.87 1.87a.88.88 0 01-1.25 1.25l-1.87-1.87zm-4.36 1.87c.34.35.9.35 1.25 0l1.87-1.87a.88.88 0 10-1.25-1.25l-1.87 1.87a.88.88 0 000 1.25z" fill="#000"/>
  <defs>
    <filter id="filter0_d" x="166.94" y="93.94" width="305.11" height="384.11" filterUnits="userSpaceOnUse" color-interpolation-filters="sRGB">
      <feFlood flood-opacity="0" result="BackgroundImageFix"/>
      <feColorMatrix in="SourceAlpha" values="0 0 0 0 0 0 0 0 0 0 0 0 0 0 0 0 0 0 127 0"/>
      <feOffset/>
      <feGaussianBlur stdDeviation=".53"/>
      <feColorMatrix values="0 0 0 0 0.101961 0 0 0 0 0.101961 0 0 0 0 0.101961 0 0 0 0.2 0"/>
      <feBlend in2="BackgroundImageFix" result="effect1_dropShadow"/>
      <feBlend in="SourceGraphic" in2="effect1_dropShadow" result="shape"/>
    </filter>
  </defs>
</svg>
