<svg id="abbe7500-9f90-4e8f-af92-7a580cf16f72" data-name="Layer 1" xmlns="http://www.w3.org/2000/svg" xmlns:xlink="http://www.w3.org/1999/xlink" width="1137.97" height="736.21" viewBox="0 0 1137.97 736.21"><defs><linearGradient id="a19205a4-5f2e-4ce0-a69f-78a4b1f477ee" x1="442.21" y1="651.25" x2="442.21" y2="380.1" gradientUnits="userSpaceOnUse"><stop offset="0" stop-color="gray" stop-opacity="0.25"/><stop offset="0.54" stop-color="gray" stop-opacity="0.12"/><stop offset="1" stop-color="gray" stop-opacity="0.1"/></linearGradient></defs><title>algolia</title><path d="M1132.82,765.73c-24.34,20.2-59,28.57-92.5,33.84l-5.64.87c-58.57,8.73-118.32,10.51-177.79,12.28-165.87,4.9-332.18,9.8-497.6-1.52-73.16-5-148.13-13.76-212.25-43.7l-1.67-.78-2.49-1.19a225.08,225.08,0,0,1-32.56-19.1c-18.32-13.06-33.43-29-41.42-47.91-12.52-29.66-5.91-63,8.4-92s35.8-55.13,54.34-82.44c5.44-8,10.6-16.3,15.4-24.81,30-53.36,44.88-115.13,13.43-166.56a228.58,228.58,0,0,0-13.43-19c-7.67-10-15.47-20-20.74-31.07-12.3-25.76-9.65-54.73-5.17-82.25,6-36.59,17.05-76,51.38-98.86,35.67-23.74,86.3-22.53,130.57-14,68.83,13.2,132.36,40.8,196.49,65.71s131.3,47.66,201.82,50.11c62.26,2.17,134.89-14,176.23-56.08,40.15-40.84,115.6-43.94,170-19.27,51.91,23.55,85.48,73.37,83,123.13-3.16,62.1-54.93,111.82-95.9,164.69-6.81,8.79-13.34,17.68-19.28,26.72-19.42,29.53-33.15,65-19.78,96.88,7.5,17.85,21.81,31.47,39.06,43.36,38.65,26.63,92,44.55,116,81.83C1171.39,696.68,1163.73,740.09,1132.82,765.73Z" transform="translate(-31.02 -81.89)" fill="#000000" opacity="7"/><g opacity="0.2"><path d="M280.73,730.29c.32.65.62,1.3.88,1.94q-9.6,1.18-19.15,1.76a14.29,14.29,0,0,1-9.06.43c-1.89.06-3.79.09-5.67.12a22.87,22.87,0,0,1,0-2.62c.39-6.06,3.17-11.23,8-13.68s10.65-1.63,15.74,1.62A26.56,26.56,0,0,1,280.73,730.29Z" transform="translate(-31.02 -81.89)" fill="#3f3d56"/><path d="M268.56,706.27a26.61,26.61,0,0,1,2.93,13.59c-.39,6-3.17,11.21-8,13.66-.34.17-.67.32-1,.47a14.29,14.29,0,0,1-9.06.43,20.21,20.21,0,0,1-5.66-2.5,27.6,27.6,0,0,1-12.17-24c.39-6,3.16-11.23,8-13.68s10.65-1.63,15.74,1.63A26.56,26.56,0,0,1,268.56,706.27Z" transform="translate(-31.02 -81.89)" fill="#3f3d56"/><ellipse cx="241.36" cy="689.85" rx="16.83" ry="22.03" transform="translate(-316.73 101.65) rotate(-26.87)" fill="#3f3d56"/><ellipse cx="229.19" cy="665.83" rx="16.83" ry="22.03" transform="translate(-307.18 93.56) rotate(-26.87)" fill="#3f3d56"/><ellipse cx="217.02" cy="641.8" rx="16.83" ry="22.03" transform="translate(-297.64 85.47) rotate(-26.87)" fill="#3f3d56"/><path d="M77.52,505.88a83,83,0,0,1-9.76-5.4L103.93,474,61.42,496a80.74,80.74,0,0,1-30.24-56.29l72.29.69L31,428.29A80.63,80.63,0,1,1,190.58,448.6a80.66,80.66,0,0,1,14.85,9L167.7,510.11l45.32-46a80.7,80.7,0,0,1,22.62,73.41,80.62,80.62,0,1,1-113.06,57.28,80.64,80.64,0,0,1-45.06-88.93Z" transform="translate(-31.02 -81.89)" fill="#000000"/><path d="M228.5,485.27a80.23,80.23,0,0,1,7.14,52.26,80.62,80.62,0,1,1-113.06,57.28C106.74,587.46,224.41,477.2,228.5,485.27Z" transform="translate(-31.02 -81.89)" opacity="0.1"/></g><g opacity="0.2"><path d="M1041.78,737.62c-.15.65-.31,1.28-.5,1.9q-7.58-4.75-14.75-9.93a13.2,13.2,0,0,1-6.74-5c-1.39-1.06-2.77-2.14-4.13-3.22a17.6,17.6,0,0,1,1.54-1.87c3.81-4.12,8.83-6.2,13.73-5.13s8.58,5.06,10.33,10.37A24.53,24.53,0,0,1,1041.78,737.62Z" transform="translate(-31.02 -81.89)" fill="#3f3d56"/><path d="M1047.1,713.29a24.56,24.56,0,0,1-5.84,11.46c-3.81,4.09-8.82,6.18-13.73,5.1-.34-.07-.66-.16-1-.26a13.2,13.2,0,0,1-6.74-5,18.21,18.21,0,0,1-2.59-5.09,25.57,25.57,0,0,1,5.32-24.33c3.81-4.11,8.83-6.19,13.73-5.12s8.58,5.05,10.33,10.36A24.54,24.54,0,0,1,1047.1,713.29Z" transform="translate(-31.02 -81.89)" fill="#3f3d56"/><ellipse cx="1037.21" cy="685.64" rx="20.37" ry="15.56" transform="translate(114.78 1470.51) rotate(-77.66)" fill="#3f3d56"/><ellipse cx="1042.53" cy="661.31" rx="20.37" ry="15.56" transform="translate(142.72 1456.58) rotate(-77.66)" fill="#3f3d56"/><ellipse cx="1047.85" cy="636.99" rx="20.37" ry="15.56" transform="translate(170.67 1442.65) rotate(-77.66)" fill="#3f3d56"/><path d="M1027.35,458.09a73.5,73.5,0,0,1-3.84-9.57l41.38,2.18-43.27-9.13a74.6,74.6,0,0,1,11.23-58l51.38,42.74-44.86-51a74.55,74.55,0,1,1,102.45,107.8,74.39,74.39,0,0,1,5.4,15.1l-57.75,15.59,59.35-6.46a74.59,74.59,0,0,1-26.7,65.81,74.55,74.55,0,1,1-114.46-25,74.55,74.55,0,0,1,19.69-90.05Z" transform="translate(-31.02 -81.89)" fill="#000000"/><path d="M1147.55,531.56a74.14,74.14,0,0,1-25.43,41.61,74.55,74.55,0,1,1-114.46-25C1000.61,533.61,1149.34,523.39,1147.55,531.56Z" transform="translate(-31.02 -81.89)" opacity="0.1"/></g><circle cx="125.19" cy="99.18" r="3.85" fill="#fa5959" opacity="0.8"/><circle cx="135.79" cy="99.18" r="3.85" fill="#fed253" opacity="0.8"/><circle cx="146.38" cy="99.18" r="3.85" fill="#8ccf4d" opacity="0.8"/>
<path d="M505.76,627.81c-1-5.71-.51-11.86-3.12-17a3.85,3.85,0,0,0-1.2-1.53,4.17,4.17,0,0,0-2.13-.48c-2.36-.1-4.73-.12-7.09-.07a2.06,2.06,0,0,0-1.79.68l-.09.2c-2.71-3-4.76-6.79-7.67-9.58.41-.14.83-.28,1.25-.39a8.28,8.28,0,0,0-.16-.84c0-.08,0-.16-.06-.25s-.1-.38-.16-.57-.06-.18-.09-.28l-.18-.52c0-.1-.08-.19-.11-.28s-.14-.35-.22-.52a2.72,2.72,0,0,1-.11-.25l-.26-.54a2.26,2.26,0,0,0-.11-.22c-.1-.19-.19-.38-.3-.56a1.62,1.62,0,0,0-.1-.18c-.11-.21-.22-.41-.34-.61a.41.41,0,0,0-.07-.11c-.13-.23-.27-.46-.41-.69h0c-1.13-1.87-2.4-3.7-3.33-5.6-1.63-3.37-2.16-7.16-3.25-10.74s-3-7.22-6.25-8.92c-1.56-.81-3.66-1.51-3.81-3.29A3.69,3.69,0,0,1,465,563a20.24,20.24,0,0,1,1.63-3.3c.23-.39.48-.77.74-1.14l.2-.28c.2-.28.4-.55.62-.82l.26-.33c.21-.25.42-.5.65-.74l.26-.3q.46-.5,1-1a2.41,2.41,0,0,0,.7-.89,2.88,2.88,0,0,0,0-1.06c-.17-2.85,1.34-5.52,3-7.82s3.62-4.48,4.56-7.18c.11-.31.2-.62.28-.93,0-.11.05-.21.07-.31s.1-.43.14-.64,0-.25.05-.37.05-.39.07-.59,0-.26,0-.39a5.63,5.63,0,0,0,0-.58c0-.13,0-.26,0-.39s0-.4,0-.6,0-.25,0-.37l-.06-.63,0-.35c0-.24-.06-.48-.1-.73l0-.24-.18-1h0a51,51,0,0,0-1.84-6.25,22.37,22.37,0,0,0-1.52-3.64c.37-.07.74-.16,1.11-.26-.23-.43-.6-.93-.81-1.42a36.88,36.88,0,0,0,5.11-11.09,49.2,49.2,0,0,0,1.05-8.57c.56-8.65,1.11-17.35.4-26l0-.33a21.94,21.94,0,0,0,.06-5.61,23.53,23.53,0,0,0-3.15-10.33c-1.93-3.06-5.14-5.75-8.7-6.11a13.16,13.16,0,0,1-1.94,1.79,7.66,7.66,0,0,1-2.26-3.52,19.23,19.23,0,0,0,16.11-16.82c0-.32.06-.64.08-1,0-.13,0-.26,0-.39l0-.54v-.91l0-.59c0-.1,0-.21,0-.31s0-.43,0-.65l0-.22c0-.24-.05-.47-.09-.71,0-.05,0-.1,0-.15,0-.25-.09-.5-.14-.75v-.07l-.18-.8h0a19.59,19.59,0,0,0-2.11-5.18,19.68,19.68,0,0,0,1.52-5.57c0-.34.07-.69.09-1l0-.66c0-.11,0-.22,0-.33,0-.29,0-.57,0-.86v-.09a19.49,19.49,0,0,0-5.4-12.85,12.47,12.47,0,0,0,1-2.06h0l.21-.63h0c.06-.2.11-.41.16-.61v-.05c0-.19.09-.39.12-.58a.3.3,0,0,0,0-.1c0-.22.07-.44.1-.67s.05-.47.06-.71a1.55,1.55,0,0,0,0-.22c0-.16,0-.32,0-.48a2,2,0,0,0,0-.25c0-.16,0-.32,0-.48s0-.14,0-.21a11.85,11.85,0,1,0-23.46,3.1,19.32,19.32,0,0,0-10.71,15.14,19.74,19.74,0,0,0-.11,3.25,19.45,19.45,0,0,0-3,9h0c0,.12,0,.24,0,.37,0,.4,0,.8,0,1.21a19.45,19.45,0,0,0,7.47,15.37,13.63,13.63,0,0,0,3.78,4,16,16,0,0,1,.6,2.51,7.6,7.6,0,0,1-2.29,6.2c-.43.37-.92.67-1.36,1a2.57,2.57,0,0,0-1.4,0c-5.15,1.62-10.09,4.83-12.47,9.75a17.77,17.77,0,0,0-1.23,3.48l-.29.42a50.19,50.19,0,0,0-6.66,16c-.65,2.91-1.06,5.94-2.42,8.59a8,8,0,0,0-.78,1.74,16.51,16.51,0,0,0-.12,2.82c-.15,1.7-1.13,3.21-1.47,4.88-.19,1-.15,2-.33,3a31.49,31.49,0,0,1-1.86,5c-1.07,2.94-1.06,6.17-1.85,9.2a3,3,0,0,1-.62,1.36,6.83,6.83,0,0,1-2.08,1.12,4.64,4.64,0,0,0-2.09,3.14,14.06,14.06,0,0,0-.07,3.89l.39,5.08c-1.89.56-3.78,1.14-5.67,1.72l-9.32,2.85a27.51,27.51,0,0,0-7.75,3.27,14,14,0,0,0-4.87,5.91,29.49,29.49,0,0,0-1.81,7.74A117.33,117.33,0,0,1,379,575.2c-.19.55-.38,1.09-.59,1.63h0c-.2.54-.41,1.07-.63,1.6,0,.11-.09.22-.14.33-.17.42-.35.85-.54,1.27s-.49,1.07-.74,1.6l21.82,7.27c0,.26.05.54.1.85.75,5.36.38,10.81,1.08,16.17a10.63,10.63,0,0,0,.61,2.62,3.66,3.66,0,0,0-1.14,1.82,9.4,9.4,0,0,0-.11,3.47c.24,2.74.49,5.49.74,8.23a12.71,12.71,0,0,1,0,3c-.28,1.81-1.31,3.39-1.88,5.13s-.55,3.94.89,5a3.59,3.59,0,0,0,3.44.31,8.07,8.07,0,0,0,2.84-2.2c4.4-4.87,6.36-11.47,9.78-17.09a33.63,33.63,0,0,0,2.34-4.08c.46-1.09.76-2.25,1.14-3.37a32.81,32.81,0,0,1,1.89-4.39c.4-.81,2-2.76,1.63-3.67-.56-1.54-6.55-2.91-8-3.38a3.93,3.93,0,0,0-2.93-.14,2,2,0,0,0-.39.26c-.17-2.2-.35-4.4-.52-6.61.89-.07,1.77-.19,2.65-.33,0-1.24-.06-2.5-.09-3.75s-.06-2.3-.08-3.45c-.06-2.79-.12-5.59-.2-8.34a43.55,43.55,0,0,0-.31-4.85c-.34-2.46-1.09-4.85-1.32-7.32a2.73,2.73,0,0,1,1.23-.57h0a8.87,8.87,0,0,1,2.13-.07l.55,0a18.3,18.3,0,0,0,8.84-2.43c2.74-1.44,5.29-3.23,8-4.69.34-.19.68-.36,1-.54l.37-.19.64-.31.54-.26.12-.06c1.59-.76,3.2-1.5,4.74-2.32a5.11,5.11,0,0,0,.33.48,3.17,3.17,0,0,0,3.33,1.21c-1.88,4.55-4.1,9-4.67,13.88-.81,7.1,2,14.05,4.81,20.61l8.9,21c1,2.31,2.29,4.92,4.71,5.47a7,7,0,0,0,4.47-.9c4.06-1.93,7.73-4.72,11.46-7.31l.14.11c3.38,2.66,5.48,6.38,7.81,9.92l6.24,10.25a3,3,0,0,0,.25,1.5,8.47,8.47,0,0,0,1.75,2.26,29.58,29.58,0,0,1,7.49,15.35,9.61,9.61,0,0,0,1.24,4.19c1.68,2.32,5.23,2.17,7.75.84a5.09,5.09,0,0,0,1.94-1.59,6.6,6.6,0,0,0,.78-2.43,34.1,34.1,0,0,0,.75-6.44C508,635.74,506.49,631.83,505.76,627.81ZM470,439.39c.43-.3.85-.61,1.26-.94a19.27,19.27,0,0,1-4,6.86h0c-.42.46-.87.9-1.33,1.32,0-.11,0-.21,0-.32-.06-1,0-2.11,0-3.17A13.53,13.53,0,0,0,470,439.39ZM434.69,518.3c0-.07.05-.13.07-.2a4,4,0,0,1,.91.94,3.75,3.75,0,0,0,.13,3.39c.53.88,1.47,1.7,1.26,2.71s-1.48,1.4-2.52,1.57c-1.36.22-2.71.48-4.07.75a.2.2,0,0,0,0-.07,10.5,10.5,0,0,0-.45-3.33C432.35,523.06,433.78,520.68,434.69,518.3Z" transform="translate(-31.02 -81.89)" fill="url(#a19205a4-5f2e-4ce0-a69f-78a4b1f477ee)"/><path d="M476.31,401.87a11.87,11.87,0,1,0-21.88-3.9,19.12,19.12,0,0,0-10.84,18.13,19.08,19.08,0,1,0,35.07,10.41q0-.45,0-.9a19.08,19.08,0,0,0-2.32-23.74Z" transform="translate(-31.02 -81.89)" fill="#3f3d56"/><g opacity="0.1"><path d="M454.27,395l.16-.08c0-.21-.06-.42-.09-.62,0,0,0,.08,0,.13S454.29,394.77,454.27,395Z" transform="translate(-31.02 -81.89)"/><path d="M481.59,414.38a18.91,18.91,0,0,1-3,8.13c0,.3,0,.6,0,.91a19.08,19.08,0,0,1-38.1,1.54c0,.51-.06,1-.06,1.55a19.08,19.08,0,0,0,38.16,0q0-.45,0-.9a19,19,0,0,0,3-12C481.64,413.88,481.62,414.13,481.59,414.38Z" transform="translate(-31.02 -81.89)"/><path d="M477.87,394.24a11.78,11.78,0,0,1-1.56,4.54c.33.34.65.7.95,1.07a11.8,11.8,0,0,0,.63-2.62A12,12,0,0,0,477.87,394.24Z" transform="translate(-31.02 -81.89)"/></g><path d="M399.42,606.57a8.8,8.8,0,0,0,.87,3.12,3.49,3.49,0,0,0,2.53,1.86,5.14,5.14,0,0,0,2.79-.81c1.7-.89,3.46-1.92,4.35-3.62s.73-3.61.59-5.46l-1.14-14.55c-2.75-.07-5.51-.07-8.26.08s-3.19.79-2.81,3.44C399.09,595.92,398.72,601.28,399.42,606.57Z" transform="translate(-31.02 -81.89)" fill="#fbbebe"/><path d="M480,616.4,486.58,627a2.58,2.58,0,0,0,1.42,1.34,2.27,2.27,0,0,0,1.37-.24,17,17,0,0,0,5.45-4.52,10.16,10.16,0,0,0,2.62-4,5.14,5.14,0,0,0-1.31-4.82,16.73,16.73,0,0,0-2.47-1.76c-5.16-3.48-7.5-10.11-12.6-13.69a1.94,1.94,0,0,0-1-.44,2.06,2.06,0,0,0-1.06.35L472,603c-3,1.65-2.06,1.84.23,3.62C475.6,609.24,477.71,612.91,480,616.4Z" transform="translate(-31.02 -81.89)" fill="#fbbebe"/><g opacity="0.1"><path d="M474.21,539.64c-1.68,2.26-3.19,4.9-3,7.71a2.59,2.59,0,0,1-.05,1,2.21,2.21,0,0,1-.7.88A21.23,21.23,0,0,0,465.1,557a3.86,3.86,0,0,0-.35,1.63,3.14,3.14,0,0,0,2,2.33,21.34,21.34,0,0,1,3.7-4.5,2.28,2.28,0,0,0,.7-.88,2.59,2.59,0,0,0,.05-1c-.16-2.82,1.35-5.45,3-7.71s3.62-4.42,4.57-7.08a14.58,14.58,0,0,0,.24-8c-.07.27-.15.52-.24.78C477.83,535.22,475.89,537.37,474.21,539.64Z" transform="translate(-31.02 -81.89)"/><path d="M444.43,541.44c-3.47,3.8-8.65,5.42-13.2,7.83-2.74,1.44-5.29,3.21-8,4.62a18.41,18.41,0,0,1-8.85,2.4c-1.36,0-2.88-.25-3.92.61.22,2.25.87,4.43,1.24,6.66a12,12,0,0,1,2.68,0,18.41,18.41,0,0,0,8.85-2.4c2.75-1.42,5.3-3.18,8-4.63,3-1.58,6.26-2.83,9.14-4.58A78,78,0,0,0,444.43,541.44Z" transform="translate(-31.02 -81.89)"/></g><path d="M452.38,448.05a7.47,7.47,0,0,1-2.3,6.12c-.56.46-1.2.82-1.74,1.3a4.7,4.7,0,0,0,.69,7.14c1.8,1.1,4.09.8,6.17.44a36.23,36.23,0,0,0,8.09-2.11,13.53,13.53,0,0,0,6.39-5.23,7.84,7.84,0,0,1-3.64-6.5c-.13-2.59.58-5.53-1.07-7.54s-4.55-1.93-7-1.26c-1.21.33-2.38.79-3.59,1.12-.61.17-2.64.17-3,.62C450.65,443,452.31,446.75,452.38,448.05Z" transform="translate(-31.02 -81.89)" fill="#fbbebe"/><path d="M452.38,448.05a7.47,7.47,0,0,1-2.3,6.12c-.56.46-1.2.82-1.74,1.3a4.7,4.7,0,0,0,.69,7.14c1.8,1.1,4.09.8,6.17.44a36.23,36.23,0,0,0,8.09-2.11,13.53,13.53,0,0,0,6.39-5.23,7.84,7.84,0,0,1-3.64-6.5c-.13-2.59.58-5.53-1.07-7.54s-4.55-1.93-7-1.26c-1.21.33-2.38.79-3.59,1.12-.61.17-2.64.17-3,.62C450.65,443,452.31,446.75,452.38,448.05Z" transform="translate(-31.02 -81.89)" opacity="0.1"/><circle cx="428.3" cy="352.61" r="13.41" fill="#fbbebe"/><path d="M417,537.37a9,9,0,0,1-1.26,3,14,14,0,0,0-1.6,9.15,9.68,9.68,0,0,0,5.64,7.13,3.88,3.88,0,0,0,3.84-.24c-1.79-2.33-1.88-5.52-1.78-8.45a2.8,2.8,0,0,1,.38-1.57,1,1,0,0,1,1.41-.25,12.91,12.91,0,0,0,1.05,5.38c.28.65.77,1.38,1.48,1.36,1,0,1.3-1.41,1.26-2.43-.16-4.16-.36-8.49-2.37-12.14a14.56,14.56,0,0,1-2-4.08,2.39,2.39,0,0,0-.51-1.43,1.93,1.93,0,0,0-.75-.36c-1.16-.32-3.89-1.34-4.84-.26S417.17,536,417,537.37Z" transform="translate(-31.02 -81.89)" fill="#fbbebe"/><path d="M436.89,466.13c-1.53-.17-2.75,1.24-3.59,2.53a49.09,49.09,0,0,0-6.67,15.82c-.65,2.88-1.06,5.86-2.42,8.47a8.09,8.09,0,0,0-.79,1.72,17,17,0,0,0-.12,2.77c-.15,1.68-1.13,3.17-1.47,4.81-.2,1-.16,2-.33,3a29.85,29.85,0,0,1-1.87,4.91c-1.07,2.9-1.06,6.08-1.84,9.07a3.27,3.27,0,0,1-.62,1.35,7.19,7.19,0,0,1-2.09,1.1,4.53,4.53,0,0,0-2.09,3.09,13.35,13.35,0,0,0-.07,3.84l.61,7.93c.64-.26,1.05-1,1.58-1.42,1-.81,2.4-.63,3.64-.4l1.8.32c1.85.34,3.86.77,5.05,2.22.94-1.47.4-3.64,1.85-4.62.47-.32,1.05-.43,1.55-.71a3.45,3.45,0,0,0,1.58-2.78,10.17,10.17,0,0,0-.46-3.28c2.32-1,3.76-3.33,4.67-5.68a46.83,46.83,0,0,0,2.16-8.77c2.1-11.78,4-23.65,4.2-35.62a17,17,0,0,0-.65-5.94C439.84,468,438.88,466.36,436.89,466.13Z" transform="translate(-31.02 -81.89)" fill="#000000"/><path d="M477,464.62c-.27,2.66,2.31,4.67,3.33,7.15a12.12,12.12,0,0,1,.71,3.6c.71,8.52.16,17.09-.4,25.63a48.93,48.93,0,0,1-1,8.45c-1.44,5.83-5,10.89-8.45,15.79a12.9,12.9,0,0,1-1.82,2.21,13.42,13.42,0,0,1-3.36,2.06L454,535.27a23.32,23.32,0,0,0-4.23,2.43,11.7,11.7,0,0,0-3.5,4.56c-2.31-1.18-4.71-2.24-7-3.42-.54-.27-1.14-.63-1.23-1.23-.13-.81.71-1.38,1.29-2,1.08-1.07,1.42-2.66,2-4.07,1.92-4.59,6.74-7.53,8.48-12.2.66-1.79.87-3.81,2.05-5.32a13.55,13.55,0,0,1,2.27-2,37.83,37.83,0,0,0,5-5.16,8.75,8.75,0,0,0,1.65-2.41,12.14,12.14,0,0,0,.39-4.22c.09-4.66,2.19-9,3.48-13.47,1.21-4.22,1.72-8.64,3.31-12.72S472.7,465.71,477,464.62Z" transform="translate(-31.02 -81.89)" opacity="0.1"/><path d="M478.5,464.62c-.27,2.66,2.31,4.67,3.33,7.15a11.8,11.8,0,0,1,.7,3.6c.72,8.52.16,17.09-.39,25.63a48.94,48.94,0,0,1-1.06,8.45c-1.44,5.83-5,10.89-8.45,15.79a10.21,10.21,0,0,1-5.17,4.27l-11.9,5.76a23,23,0,0,0-4.23,2.43,11.61,11.61,0,0,0-3.5,4.56c-2.31-1.18-4.71-2.24-7-3.42-.54-.27-1.14-.63-1.24-1.23-.12-.81.72-1.38,1.3-2,1.08-1.07,1.41-2.66,2-4.07,1.92-4.59,6.74-7.53,8.47-12.2.67-1.79.88-3.81,2.06-5.32a13.55,13.55,0,0,1,2.27-2,38.42,38.42,0,0,0,5-5.16,8.51,8.51,0,0,0,1.64-2.41,11.9,11.9,0,0,0,.39-4.22c.09-4.66,2.2-9,3.49-13.47,1.21-4.22,1.72-8.64,3.31-12.72S474.25,465.71,478.5,464.62Z" transform="translate(-31.02 -81.89)" fill="#000000"/><path d="M466,413.78a19.06,19.06,0,0,0-11.91,2.46c.53,0,1.06.06,1.6.12A19.08,19.08,0,0,1,463,451.78a19.08,19.08,0,0,0,3-38Z" transform="translate(-31.02 -81.89)" fill="#3f3d56"/><path d="M471.84,424.39a8.74,8.74,0,0,1,.15,6.68,6.32,6.32,0,0,0-.32-.82c-2.35-5.24-9.62-7.41-16.22-4.85a13.35,13.35,0,0,0-7.84,7.47c-1.68-5.07,1.74-10.9,8-13.34C462.21,417,469.48,419.14,471.84,424.39Z" transform="translate(-31.02 -81.89)" fill="#3f3d56"/><g opacity="0.1"><path d="M471.87,430.65a19.09,19.09,0,0,0-12.75-16.46,19.27,19.27,0,0,0-5.06,2.05c.53,0,1.06.06,1.6.12A19.09,19.09,0,0,1,471.87,430.65Z" transform="translate(-31.02 -81.89)"/><path d="M475,416.73a19.11,19.11,0,0,0-12.75-16.46,19.13,19.13,0,0,0-5.06,2.05q.79,0,1.59.12A19.09,19.09,0,0,1,475,416.73Z" transform="translate(-31.02 -81.89)"/><path d="M475.05,395.93a11.54,11.54,0,0,0-7.7-9.93,11.64,11.64,0,0,0-3.05,1.24c.32,0,.64,0,1,.07A11.53,11.53,0,0,1,475.05,395.93Z" transform="translate(-31.02 -81.89)"/><path d="M482.18,428.07a19.1,19.1,0,0,1-14.78,20.15,19.15,19.15,0,0,1-4.41,3.56,19.07,19.07,0,0,0,19.19-23.71Z" transform="translate(-31.02 -81.89)"/></g><ellipse cx="997.77" cy="687.1" rx="46.49" ry="8.94" fill="#000000"/><ellipse cx="996.99" cy="683.3" rx="5.41" ry="7.09" fill="#3f3d56"/><ellipse cx="996.99" cy="674.64" rx="5.41" ry="7.09" fill="#3f3d56"/><ellipse cx="996.99" cy="665.97" rx="5.41" ry="7.09" fill="#3f3d56"/><ellipse cx="996.99" cy="657.31" rx="5.41" ry="7.09" fill="#3f3d56"/><ellipse cx="996.99" cy="648.65" rx="5.41" ry="7.09" fill="#3f3d56"/><ellipse cx="996.99" cy="639.99" rx="5.41" ry="7.09" fill="#3f3d56"/><ellipse cx="996.99" cy="631.33" rx="5.41" ry="7.09" fill="#3f3d56"/><path d="M1048.27,654a26.3,26.3,0,0,0,2-3l-14.23-2.33,15.39.11a26,26,0,0,0,.49-20.54l-20.64,10.7,19-14a25.93,25.93,0,1,0-42.83,29,25.91,25.91,0,0,0-3,4.73l18.47,9.59-19.69-6.6a25.91,25.91,0,0,0,4.18,24.34,25.93,25.93,0,1,0,40.76,0,25.92,25.92,0,0,0,0-32.06Z" transform="translate(-31.02 -81.89)" fill="#000000"/><path d="M1002,670a25.77,25.77,0,0,0,5.55,16,25.93,25.93,0,1,0,40.76,0C1051.75,681.6,1002,667.07,1002,670Z" transform="translate(-31.02 -81.89)" opacity="0.1"/><ellipse cx="185.77" cy="687.1" rx="46.49" ry="8.94" fill="#000000"/><ellipse cx="184.99" cy="683.3" rx="5.41" ry="7.09" fill="#3f3d56"/><ellipse cx="184.99" cy="674.64" rx="5.41" ry="7.09" fill="#3f3d56"/><ellipse cx="184.99" cy="665.97" rx="5.41" ry="7.09" fill="#3f3d56"/><ellipse cx="184.99" cy="657.31" rx="5.41" ry="7.09" fill="#3f3d56"/><ellipse cx="184.99" cy="648.65" rx="5.41" ry="7.09" fill="#3f3d56"/><ellipse cx="184.99" cy="639.99" rx="5.41" ry="7.09" fill="#3f3d56"/><ellipse cx="184.99" cy="631.33" rx="5.41" ry="7.09" fill="#3f3d56"/><path d="M236.27,654a26.3,26.3,0,0,0,2-3l-14.23-2.33,15.39.11a26,26,0,0,0,.49-20.54l-20.64,10.7,19-14a25.93,25.93,0,1,0-42.83,29,25.91,25.91,0,0,0-3,4.73L211,668.27l-19.69-6.6A25.91,25.91,0,0,0,195.51,686a25.93,25.93,0,1,0,40.76,0,25.92,25.92,0,0,0,0-32.06Z" transform="translate(-31.02 -81.89)" fill="#000000"/><path d="M190,670a25.77,25.77,0,0,0,5.55,16,25.93,25.93,0,1,0,40.76,0C239.75,681.6,190,667.07,190,670Z" transform="translate(-31.02 -81.89)" opacity="0.1"/></svg>