<svg width="640" height="600" fill="none" xmlns="http://www.w3.org/2000/svg">
<path fill-rule="evenodd" clip-rule="evenodd" d="M566.727 479.776C566.097 479.146 566.097 478.125 566.727 477.495C567.357 476.865 568.378 476.865 569.008 477.495L572.429 480.916C573.059 481.546 573.059 482.567 572.429 483.197C571.799 483.827 570.778 483.827 570.148 483.197L566.727 479.776ZM574.714 487.759C574.084 487.129 574.084 486.108 574.714 485.478C575.344 484.848 576.365 484.848 576.995 485.478L580.416 488.899C581.046 489.529 581.046 490.55 580.416 491.18C579.786 491.81 578.765 491.81 578.135 491.18L574.714 487.759ZM566.727 491.18C567.357 491.81 568.378 491.81 569.008 491.18L572.429 487.759C573.059 487.129 573.059 486.108 572.429 485.478C571.799 484.848 570.778 484.848 570.148 485.478L566.727 488.899C566.097 489.529 566.097 490.55 566.727 491.18ZM576.995 483.197C576.365 483.827 575.344 483.827 574.714 483.197C574.084 482.567 574.084 481.546 574.714 480.916L578.135 477.495C578.765 476.865 579.786 476.865 580.416 477.495C581.046 478.125 581.046 479.146 580.416 479.776L576.995 483.197Z" fill="#000"/>
<path fill-rule="evenodd" clip-rule="evenodd" d="M127.342 45.1544C125.321 48.0615 121.327 48.7804 118.42 46.76C115.513 44.7396 114.794 40.7451 116.814 37.838C118.835 34.9309 122.829 34.2121 125.736 36.2324C128.643 38.2528 129.362 42.2473 127.342 45.1544ZM119.446 39.6656C118.436 41.1192 118.795 43.1164 120.249 44.1266C121.702 45.1368 123.699 44.7774 124.71 43.3238C125.72 41.8703 125.36 39.873 123.907 38.8628C122.453 37.8527 120.456 38.2121 119.446 39.6656Z" fill="#000"/>
<path fill-rule="evenodd" clip-rule="evenodd" d="M508.977 548.317V553.751L506.26 553.751V548.317H500.826V545.6L506.26 545.6V540.167H508.977V545.6H514.411V548.317H508.977Z" fill="#000"/>
<path fill-rule="evenodd" clip-rule="evenodd" d="M51.2635 115.976V122.643H47.9302V115.976H41.2637V112.643H47.9302V105.977H51.2635V112.643H57.9301V115.976H51.2635Z" fill="#000"/>
<rect opacity="0.5" x="160.43" y="102" width="254.739" height="254.739" rx="24" transform="rotate(27.7042 160.43 102)" fill="#F2F6FF"/>
<path d="M487.511 101.305C498.759 96.7181 511.595 102.118 516.182 113.365L606.361 334.511C610.947 345.759 605.548 358.595 594.3 363.181L373.154 453.361C361.907 457.947 349.071 452.547 344.484 441.3L254.305 220.154C249.718 208.907 255.118 196.07 266.366 191.484L487.511 101.305Z" fill="#FAFAFA"/>
<rect x="168.508" y="298.202" width="213.008" height="213.008" rx="24" transform="rotate(21.4628 168.508 298.202)" fill="#F2F6FF"/>
<path fill-rule="evenodd" clip-rule="evenodd" d="M390.47 92.7348C391.324 93.3419 391.525 94.5268 390.918 95.3813C388.256 99.1271 385.274 101.968 381.272 103.996C383.979 105.846 387.485 108.905 389.721 112.941C390.229 113.858 389.897 115.013 388.98 115.521C388.063 116.029 386.908 115.698 386.4 114.781C383.791 110.071 378.947 106.801 376.91 105.801C376.853 105.773 376.797 105.742 376.743 105.709C376.65 105.682 376.436 105.615 376.206 105.466C375.913 105.276 375.489 104.879 375.363 104.214C375.25 103.622 375.444 103.166 375.539 102.979C375.641 102.777 375.757 102.636 375.81 102.574C375.956 102.402 376.17 102.219 376.28 102.124C376.292 102.114 376.302 102.106 376.311 102.098C376.487 101.946 376.688 101.828 376.906 101.749C381.689 100.017 384.893 97.306 387.823 93.1826C388.43 92.3281 389.615 92.1276 390.47 92.7348Z" fill="#000"/>
<path d="M160 272.074H445.22C449.493 272.074 452.957 275.538 452.957 279.812V468.725C452.957 472.998 449.493 476.463 445.22 476.463H167.738C163.464 476.463 160 472.998 160 468.725V272.074Z" fill="#000"/>
<path d="M160.002 244.005C160.002 240.691 162.688 238.005 166.002 238.005H303.887C307.201 238.005 309.887 240.691 309.887 244.005V272.07H160.002V244.005Z" fill="#000"/>
<path fill-rule="evenodd" clip-rule="evenodd" d="M395.012 104.44C395.122 103.57 395.916 102.953 396.786 103.062C397.915 103.204 399.033 103.348 400.141 103.497C401.011 103.614 401.621 104.412 401.505 105.281C401.388 106.15 400.589 106.76 399.719 106.643C398.62 106.496 397.511 106.352 396.391 106.212C395.521 106.103 394.903 105.309 395.012 104.44ZM409.324 106.449C409.467 105.584 410.285 105 411.151 105.143C413.397 105.515 415.598 105.904 417.755 106.307C418.617 106.469 419.185 107.298 419.024 108.16C418.862 109.021 418.032 109.589 417.17 109.427C415.035 109.028 412.856 108.643 410.631 108.275C409.765 108.131 409.18 107.314 409.324 106.449ZM426.814 109.77C427.009 108.915 427.86 108.38 428.716 108.575C430.941 109.082 433.114 109.606 435.235 110.148C436.085 110.365 436.598 111.23 436.381 112.079C436.163 112.928 435.298 113.441 434.448 113.223C432.354 112.689 430.209 112.17 428.01 111.67C427.154 111.475 426.619 110.624 426.814 109.77ZM444.02 114.226C444.279 113.389 445.169 112.92 446.007 113.18C448.197 113.857 450.323 114.554 452.388 115.271C453.217 115.558 453.656 116.463 453.368 117.291C453.08 118.119 452.174 118.557 451.345 118.269C449.316 117.565 447.224 116.879 445.068 116.212C444.23 115.953 443.76 115.064 444.02 114.226ZM460.769 120.124C461.111 119.317 462.043 118.939 462.851 119.281C464.978 120.18 467.027 121.103 469 122.047C469.792 122.426 470.126 123.373 469.747 124.164C469.368 124.955 468.419 125.289 467.628 124.91C465.7 123.988 463.696 123.085 461.613 122.204C460.805 121.863 460.427 120.931 460.769 120.124ZM476.751 127.894C477.2 127.141 478.175 126.895 478.929 127.343C480.926 128.532 482.825 129.747 484.63 130.985C485.353 131.481 485.537 132.469 485.04 133.192C484.544 133.914 483.555 134.098 482.832 133.602C481.085 132.403 479.243 131.225 477.302 130.07C476.549 129.621 476.302 128.647 476.751 127.894ZM491.294 138.062C491.879 137.408 492.883 137.351 493.538 137.935C495.283 139.492 496.905 141.075 498.409 142.68C499.008 143.32 498.975 144.324 498.334 144.923C497.694 145.522 496.688 145.489 496.089 144.849C494.652 143.315 493.098 141.798 491.422 140.303C490.767 139.719 490.71 138.716 491.294 138.062ZM503.259 151.144C503.993 150.664 504.978 150.869 505.458 151.602C506.742 153.561 507.877 155.539 508.872 157.528C509.265 158.312 508.947 159.265 508.162 159.658C507.377 160.05 506.423 159.732 506.03 158.948C505.09 157.069 504.016 155.198 502.8 153.341C502.319 152.607 502.525 151.624 503.259 151.144ZM510.974 167.067C511.822 166.843 512.692 167.347 512.917 168.195C513.212 169.308 513.47 170.421 513.691 171.531C513.916 172.654 514.108 173.839 514.268 175.072C514.381 175.941 513.767 176.737 512.897 176.85C512.027 176.963 511.23 176.35 511.117 175.48C510.965 174.311 510.784 173.198 510.575 172.152C510.366 171.106 510.123 170.057 509.845 169.008C509.62 168.16 510.126 167.292 510.974 167.067ZM513.291 185.278C514.168 185.296 514.865 186.021 514.847 186.897C514.799 189.224 514.663 191.598 514.436 193.969C514.353 194.842 513.577 195.482 512.704 195.399C511.83 195.315 511.19 194.54 511.273 193.668C511.492 191.376 511.623 189.08 511.67 186.832C511.688 185.956 512.414 185.26 513.291 185.278ZM495.776 204.082C495.946 204.942 495.386 205.776 494.525 205.946C493.36 206.176 492.285 206.558 491.322 207.077C490.314 207.621 489.402 208.181 488.577 208.753C487.857 209.253 486.867 209.074 486.366 208.354C485.866 207.634 486.044 206.645 486.765 206.145C487.693 205.502 488.708 204.88 489.813 204.284C491.074 203.604 492.453 203.119 493.91 202.832C494.771 202.662 495.606 203.222 495.776 204.082ZM511.345 203.724C512.198 203.931 512.721 204.789 512.513 205.641C512.318 206.442 512.111 207.232 511.89 208.01C512.541 208.51 513.187 209.046 513.823 209.616C514.476 210.202 514.53 211.205 513.944 211.857C513.358 212.51 512.354 212.564 511.701 211.979C511.406 211.714 511.11 211.459 510.812 211.212C510.416 211.769 509.687 212.026 509.006 211.795C508.175 211.512 507.73 210.611 508.013 209.781C508.07 209.613 508.127 209.443 508.183 209.273C507.46 208.803 506.735 208.382 506.012 208.008C505.232 207.605 504.928 206.647 505.331 205.869C505.734 205.091 506.693 204.786 507.472 205.189C508.022 205.473 508.57 205.78 509.116 206.111C509.223 205.708 509.326 205.301 509.426 204.891C509.633 204.039 510.493 203.517 511.345 203.724ZM507.998 214.259C508.78 214.656 509.092 215.612 508.695 216.393C508.413 216.948 508.119 217.488 507.814 218.01C507.193 219.076 506.553 220.065 505.899 220.981C505.389 221.694 504.397 221.86 503.683 221.35C502.969 220.841 502.803 219.85 503.313 219.136C503.907 218.304 504.494 217.397 505.069 216.412C505.341 215.945 505.606 215.459 505.862 214.955C506.26 214.174 507.216 213.862 507.998 214.259ZM481.234 214.521C482.075 214.769 482.557 215.651 482.309 216.492C481.715 218.503 481.866 220.411 482.536 222.039C482.87 222.85 482.482 223.777 481.671 224.11C480.859 224.443 479.931 224.056 479.597 223.245C478.651 220.945 478.465 218.295 479.261 215.595C479.509 214.754 480.392 214.273 481.234 214.521ZM519.207 218.395C519.961 217.946 520.936 218.193 521.385 218.946C522.549 220.897 523.628 223.029 524.602 225.347C524.941 226.156 524.56 227.086 523.751 227.425C522.942 227.764 522.011 227.383 521.672 226.575C520.754 224.388 519.741 222.389 518.656 220.571C518.207 219.818 518.453 218.844 519.207 218.395ZM497.757 226.787C498.135 227.578 497.8 228.526 497.008 228.904C494.503 230.1 492.001 230.548 489.674 230.37C488.799 230.304 488.144 229.541 488.211 228.667C488.277 227.793 489.041 227.139 489.916 227.205C491.656 227.338 493.604 227.011 495.638 226.04C496.43 225.662 497.378 225.997 497.757 226.787ZM526.223 235.45C527.08 235.266 527.925 235.811 528.11 236.668C528.587 238.879 528.982 241.206 529.285 243.65C529.393 244.52 528.775 245.312 527.904 245.42C527.033 245.528 526.24 244.91 526.132 244.04C525.839 241.686 525.46 239.452 525.004 237.336C524.819 236.479 525.365 235.635 526.223 235.45ZM528.406 253.803C529.283 253.8 529.997 254.509 530 255.385C530.003 256.541 529.988 257.717 529.955 258.914C529.925 259.979 529.878 261.041 529.813 262.1C529.759 262.975 529.006 263.641 528.13 263.588C527.255 263.534 526.588 262.782 526.641 261.907C526.704 260.882 526.75 259.855 526.779 258.825C526.811 257.661 526.825 256.517 526.822 255.395C526.819 254.518 527.529 253.806 528.406 253.803ZM527.289 270.807C528.154 270.955 528.734 271.776 528.586 272.64C528.226 274.735 527.798 276.815 527.306 278.876C527.102 279.729 526.245 280.255 525.391 280.052C524.538 279.848 524.011 278.992 524.215 278.14C524.692 276.143 525.106 274.13 525.454 272.103C525.603 271.239 526.424 270.659 527.289 270.807ZM523.334 287.024C524.161 287.315 524.596 288.221 524.305 289.048C523.601 291.049 522.835 293.027 522.01 294.982C521.669 295.79 520.738 296.169 519.929 295.829C519.121 295.488 518.741 294.557 519.082 293.75C519.882 291.853 520.625 289.934 521.308 287.995C521.599 287.168 522.506 286.733 523.334 287.024ZM516.776 302.38C517.548 302.798 517.834 303.761 517.416 304.532C516.407 306.392 515.344 308.226 514.228 310.031C513.767 310.777 512.788 311.008 512.041 310.547C511.295 310.087 511.063 309.109 511.524 308.363C512.609 306.609 513.643 304.827 514.623 303.02C515.041 302.249 516.005 301.963 516.776 302.38ZM507.934 316.548C508.635 317.075 508.776 318.071 508.248 318.771C506.975 320.46 505.655 322.117 504.289 323.74C503.724 324.411 502.722 324.498 502.05 323.934C501.379 323.37 501.292 322.368 501.857 321.697C503.186 320.118 504.471 318.505 505.709 316.862C506.237 316.161 507.233 316.021 507.934 316.548ZM497.126 329.286C497.745 329.907 497.744 330.912 497.122 331.531C495.624 333.023 494.085 334.478 492.507 335.895C491.854 336.481 490.85 336.427 490.263 335.775C489.677 335.123 489.73 334.12 490.383 333.534C491.921 332.154 493.42 330.736 494.879 329.283C495.5 328.664 496.506 328.665 497.126 329.286Z" fill="#000"/>
<path fill-rule="evenodd" clip-rule="evenodd" d="M280.209 194.29C308.162 194.29 330.823 171.63 330.823 143.677C330.823 115.724 308.162 93.0635 280.209 93.0635C252.256 93.0635 229.596 115.724 229.596 143.677C229.596 171.63 252.256 194.29 280.209 194.29Z" fill="#000"/>
<path fill-rule="evenodd" clip-rule="evenodd" d="M279.839 144.574C272.85 144.574 267.185 138.909 267.185 131.92C267.185 124.932 272.85 119.267 279.839 119.267C286.827 119.267 292.492 124.932 292.492 131.92C292.492 138.909 286.827 144.574 279.839 144.574ZM279.839 143.308C286.128 143.308 291.227 138.21 291.227 131.92C291.227 125.631 286.128 120.532 279.839 120.532C273.549 120.532 268.451 125.631 268.451 131.92C268.451 138.21 273.549 143.308 279.839 143.308ZM279.839 147.105C269.716 147.105 259.593 155.962 259.593 167.35H258.328C258.328 154.697 268.451 145.839 279.839 145.839C291.227 145.839 301.35 154.697 301.35 167.35H300.084C300.084 155.962 289.962 147.105 279.839 147.105Z" fill="white"/>
<path d="M259.593 167.35V167.983H260.226V167.35H259.593ZM258.328 167.35H257.695V167.983H258.328V167.35ZM301.35 167.35V167.983H301.982V167.35H301.35ZM300.084 167.35H299.452V167.983H300.084V167.35ZM266.553 131.92C266.553 139.258 272.501 145.206 279.839 145.206V143.941C273.2 143.941 267.818 138.559 267.818 131.92H266.553ZM279.839 118.634C272.501 118.634 266.553 124.583 266.553 131.92H267.818C267.818 125.282 273.2 119.9 279.839 119.9V118.634ZM293.125 131.92C293.125 124.583 287.176 118.634 279.839 118.634V119.9C286.478 119.9 291.859 125.282 291.859 131.92H293.125ZM279.839 145.206C287.176 145.206 293.125 139.258 293.125 131.92H291.859C291.859 138.559 286.478 143.941 279.839 143.941V145.206ZM290.594 131.92C290.594 137.86 285.779 142.676 279.839 142.676V143.941C286.478 143.941 291.859 138.559 291.859 131.92H290.594ZM279.839 121.165C285.779 121.165 290.594 125.98 290.594 131.92H291.859C291.859 125.282 286.478 119.9 279.839 119.9V121.165ZM269.083 131.92C269.083 125.98 273.899 121.165 279.839 121.165V119.9C273.2 119.9 267.818 125.282 267.818 131.92H269.083ZM279.839 142.676C273.899 142.676 269.083 137.86 269.083 131.92H267.818C267.818 138.559 273.2 143.941 279.839 143.941V142.676ZM260.226 167.35C260.226 156.336 270.04 147.737 279.839 147.737V146.472C269.392 146.472 258.961 155.587 258.961 167.35H260.226ZM258.328 167.983H259.593V166.717H258.328V167.983ZM279.839 145.206C268.126 145.206 257.695 154.323 257.695 167.35H258.961C258.961 155.07 268.776 146.472 279.839 146.472V145.206ZM301.982 167.35C301.982 154.323 291.552 145.206 279.839 145.206V146.472C290.902 146.472 300.717 155.07 300.717 167.35H301.982ZM300.084 167.983H301.35V166.717H300.084V167.983ZM279.839 147.737C289.638 147.737 299.452 156.336 299.452 167.35H300.717C300.717 155.587 290.285 146.472 279.839 146.472V147.737Z" fill="white"/>
<path fill-rule="evenodd" clip-rule="evenodd" d="M247.311 86.7361C264.083 86.7361 277.679 73.1399 277.679 56.3681C277.679 39.5962 264.083 26 247.311 26C230.54 26 216.943 39.5962 216.943 56.3681C216.943 73.1399 230.54 86.7361 247.311 86.7361Z" fill="#000"/>
<path fill-rule="evenodd" clip-rule="evenodd" d="M247.111 57.1015C243.065 57.1015 239.785 53.8217 239.785 49.7758C239.785 45.73 243.065 42.4502 247.111 42.4502C251.157 42.4502 254.436 45.73 254.436 49.7758C254.436 53.8217 251.157 57.1015 247.111 57.1015ZM247.11 56.3684C250.751 56.3684 253.703 53.4166 253.703 49.7753C253.703 46.1341 250.751 43.1823 247.11 43.1823C243.469 43.1823 240.517 46.1341 240.517 49.7753C240.517 53.4166 243.469 56.3684 247.11 56.3684ZM247.112 58.5675C241.251 58.5675 235.391 63.6954 235.391 70.2885H234.658C234.658 62.9629 240.519 57.8349 247.112 57.8349C253.705 57.8349 259.565 62.9629 259.565 70.2885H258.833C258.833 63.6954 252.972 58.5675 247.112 58.5675Z" fill="white"/>
<path d="M235.391 70.2885V70.9212H236.023V70.2885H235.391ZM234.658 70.2885H234.026V70.9212H234.658V70.2885ZM259.565 70.2885V70.9212H260.198V70.2885H259.565ZM258.833 70.2885H258.2V70.9212H258.833V70.2885ZM239.152 49.7758C239.152 54.1711 242.715 57.7341 247.111 57.7341V56.4688C243.414 56.4688 240.418 53.4722 240.418 49.7758H239.152ZM247.111 41.8175C242.715 41.8175 239.152 45.3806 239.152 49.7758H240.418C240.418 46.0794 243.414 43.0829 247.111 43.0829V41.8175ZM255.069 49.7758C255.069 45.3806 251.506 41.8175 247.111 41.8175V43.0829C250.807 43.0829 253.804 46.0794 253.804 49.7758H255.069ZM247.111 57.7341C251.506 57.7341 255.069 54.1711 255.069 49.7758H253.804C253.804 53.4722 250.807 56.4688 247.111 56.4688V57.7341ZM253.07 49.7753C253.07 53.0672 250.402 55.7357 247.11 55.7357V57.0011C251.101 57.0011 254.336 53.766 254.336 49.7753H253.07ZM247.11 43.8149C250.402 43.8149 253.07 46.4835 253.07 49.7753H254.336C254.336 45.7847 251.101 42.5496 247.11 42.5496V43.8149ZM241.149 49.7753C241.149 46.4835 243.818 43.8149 247.11 43.8149V42.5496C243.119 42.5496 239.884 45.7847 239.884 49.7753H241.149ZM247.11 55.7357C243.818 55.7357 241.149 53.0672 241.149 49.7753H239.884C239.884 53.766 243.119 57.0011 247.11 57.0011V55.7357ZM236.023 70.2885C236.023 64.07 241.575 59.2002 247.112 59.2002V57.9348C240.928 57.9348 234.758 63.3209 234.758 70.2885H236.023ZM234.658 70.9212H235.391V69.6558H234.658V70.9212ZM247.112 57.2022C240.194 57.2022 234.026 62.5894 234.026 70.2885H235.291C235.291 63.3364 240.844 58.4676 247.112 58.4676V57.2022ZM260.198 70.2885C260.198 62.5894 254.03 57.2022 247.112 57.2022V58.4676C253.38 58.4676 258.933 63.3364 258.933 70.2885H260.198ZM258.833 70.9212H259.565V69.6558H258.833V70.9212ZM247.112 59.2002C252.649 59.2002 258.2 64.07 258.2 70.2885H259.465C259.465 63.3209 253.296 57.9348 247.112 57.9348V59.2002Z" fill="white"/>
<path fill-rule="evenodd" clip-rule="evenodd" d="M335.251 86.7374C348.179 86.7374 358.659 76.2569 358.659 63.3286C358.659 50.4004 348.179 39.9199 335.251 39.9199C322.322 39.9199 311.842 50.4004 311.842 63.3286C311.842 76.2569 322.322 86.7374 335.251 86.7374Z" fill="#000"/>
<path fill-rule="evenodd" clip-rule="evenodd" d="M335.683 64.4934C332.741 64.4934 330.355 62.108 330.355 59.1656C330.355 56.2232 332.741 53.8379 335.683 53.8379C338.625 53.8379 341.011 56.2232 341.011 59.1656C341.011 62.108 338.625 64.4934 335.683 64.4934ZM335.681 63.96C338.329 63.96 340.476 61.8132 340.476 59.1651C340.476 56.5169 338.329 54.3701 335.681 54.3701C333.032 54.3701 330.886 56.5169 330.886 59.1651C330.886 61.8132 333.032 63.96 335.681 63.96ZM335.682 65.5585C331.42 65.5585 327.158 69.2879 327.158 74.0829H326.625C326.625 68.7552 330.887 65.0257 335.682 65.0257C340.477 65.0257 344.739 68.7552 344.739 74.0829H344.207C344.207 69.2879 339.944 65.5585 335.682 65.5585Z" fill="white"/>
<path d="M327.158 74.0829V74.7156H327.79V74.0829H327.158ZM326.625 74.0829H325.992V74.7156H326.625V74.0829ZM344.739 74.0829V74.7156H345.372V74.0829H344.739ZM344.207 74.0829H343.574V74.7156H344.207V74.0829ZM329.723 59.1656C329.723 62.4575 332.391 65.126 335.683 65.126V63.8607C333.09 63.8607 330.988 61.7586 330.988 59.1656H329.723ZM335.683 53.2052C332.391 53.2052 329.723 55.8738 329.723 59.1656H330.988C330.988 56.5726 333.09 54.4706 335.683 54.4706V53.2052ZM341.643 59.1656C341.643 55.8738 338.975 53.2052 335.683 53.2052V54.4706C338.276 54.4706 340.378 56.5726 340.378 59.1656H341.643ZM335.683 65.126C338.975 65.126 341.643 62.4575 341.643 59.1656H340.378C340.378 61.7586 338.276 63.8607 335.683 63.8607V65.126ZM339.843 59.1651C339.843 61.4638 337.979 63.3273 335.681 63.3273V64.5927C338.678 64.5927 341.108 62.1626 341.108 59.1651H339.843ZM335.681 55.0028C337.979 55.0028 339.843 56.8663 339.843 59.1651H341.108C341.108 56.1675 338.678 53.7374 335.681 53.7374V55.0028ZM331.518 59.1651C331.518 56.8663 333.382 55.0028 335.681 55.0028V53.7374C332.683 53.7374 330.253 56.1675 330.253 59.1651H331.518ZM335.681 63.3273C333.382 63.3273 331.518 61.4638 331.518 59.1651H330.253C330.253 62.1626 332.683 64.5927 335.681 64.5927V63.3273ZM327.79 74.0829C327.79 69.6624 331.744 66.1912 335.682 66.1912V64.9258C331.096 64.9258 326.525 68.9134 326.525 74.0829H327.79ZM326.625 74.7156H327.158V73.4502H326.625V74.7156ZM335.682 64.393C330.562 64.393 325.992 68.3817 325.992 74.0829H327.258C327.258 69.1287 331.212 65.6584 335.682 65.6584V64.393ZM345.372 74.0829C345.372 68.3817 340.802 64.393 335.682 64.393V65.6584C340.152 65.6584 344.107 69.1287 344.107 74.0829H345.372ZM344.207 74.7156H344.739V73.4502H344.207V74.7156ZM335.682 66.1912C339.621 66.1912 343.574 69.6624 343.574 74.0829H344.839C344.839 68.9134 340.268 64.9258 335.682 64.9258V66.1912Z" fill="white"/>
<path d="M292.6 326.387C292.6 324.014 294.524 322.089 296.897 322.089H344.172L361.363 339.28V403.746C361.363 406.12 359.439 408.044 357.066 408.044H296.897C294.524 408.044 292.6 406.12 292.6 403.746V326.387Z" fill="white"/>
<path fill-rule="evenodd" clip-rule="evenodd" d="M296.901 405.895H357.07C358.256 405.895 359.218 404.933 359.218 403.746V340.17L343.286 324.238H296.901C295.714 324.238 294.752 325.2 294.752 326.387V403.746C294.752 404.933 295.714 405.895 296.901 405.895ZM344.176 322.089H296.901C294.528 322.089 292.604 324.014 292.604 326.387V403.746C292.604 406.12 294.528 408.044 296.901 408.044H357.07C359.443 408.044 361.367 406.12 361.367 403.746V339.28L344.176 322.089Z" fill="#E8E8E8"/>
<path d="M344.176 322.089L361.367 339.28H344.176V322.089Z" fill="#E8E8E8"/>
<rect x="284.699" y="365.551" width="50.1865" height="29.1137" rx="4.29774" fill="#000"/>
<path d="M291.121 389.119V373.707H296.416C297.267 373.707 298.063 373.794 298.803 373.967C299.544 374.125 300.19 374.4 300.742 374.794C301.293 375.173 301.726 375.685 302.042 376.331C302.373 376.961 302.538 377.741 302.538 378.671C302.538 379.569 302.373 380.349 302.042 381.011C301.726 381.673 301.293 382.217 300.742 382.642C300.19 383.068 299.552 383.383 298.827 383.588C298.102 383.792 297.33 383.895 296.51 383.895H294.596V389.119H291.121ZM294.596 381.129H296.298C298.189 381.129 299.134 380.31 299.134 378.671C299.134 377.867 298.882 377.3 298.378 376.969C297.874 376.638 297.149 376.473 296.203 376.473H294.596V381.129Z" fill="white"/>
<path d="M305.202 389.119V373.707H310.497C311.348 373.707 312.144 373.794 312.884 373.967C313.625 374.125 314.271 374.4 314.823 374.794C315.374 375.173 315.807 375.685 316.123 376.331C316.454 376.961 316.619 377.741 316.619 378.671C316.619 379.569 316.454 380.349 316.123 381.011C315.807 381.673 315.374 382.217 314.823 382.642C314.271 383.068 313.633 383.383 312.908 383.588C312.183 383.792 311.411 383.895 310.591 383.895H308.677V389.119H305.202ZM308.677 381.129H310.379C312.27 381.129 313.215 380.31 313.215 378.671C313.215 377.867 312.963 377.3 312.459 376.969C311.955 376.638 311.23 376.473 310.284 376.473H308.677V381.129Z" fill="white"/>
<path d="M321.962 389.119V376.638H317.731V373.707H329.691V376.638H325.46V389.119H321.962Z" fill="white"/>
<path d="M389.01 335.364C389.01 332.225 391.555 329.68 394.694 329.68H457.219L479.956 352.417V437.678C479.956 440.817 477.411 443.362 474.271 443.362H394.694C391.555 443.362 389.01 440.817 389.01 437.678V335.364Z" fill="white"/>
<path fill-rule="evenodd" clip-rule="evenodd" d="M394.696 440.52H474.273C475.843 440.52 477.115 439.248 477.115 437.678V353.594L456.044 332.522H394.696C393.126 332.522 391.854 333.795 391.854 335.364V437.678C391.854 439.248 393.126 440.52 394.696 440.52ZM457.221 329.68H394.696C391.557 329.68 389.012 332.225 389.012 335.364V437.678C389.012 440.817 391.557 443.362 394.696 443.362H474.273C477.413 443.362 479.957 440.817 479.957 437.678V352.417L457.221 329.68Z" fill="#E8E8E8"/>
<path d="M457.221 329.68L479.957 352.417H457.221V329.68Z" fill="#E8E8E8"/>
<rect x="378.139" y="386.472" width="67.2121" height="39.8885" rx="5.68411" fill="#000"/>
<path d="M386.719 418.383V398H393.722C394.847 398 395.9 398.114 396.879 398.343C397.859 398.552 398.713 398.917 399.443 399.438C400.172 399.938 400.745 400.615 401.162 401.47C401.6 402.303 401.819 403.335 401.819 404.565C401.819 405.753 401.6 406.784 401.162 407.66C400.745 408.535 400.172 409.254 399.443 409.817C398.713 410.38 397.869 410.796 396.91 411.067C395.952 411.338 394.93 411.474 393.847 411.474H391.314V418.383H386.719ZM391.314 407.816H393.565C396.066 407.816 397.317 406.732 397.317 404.565C397.317 403.502 396.983 402.751 396.316 402.314C395.649 401.876 394.691 401.657 393.44 401.657H391.314V407.816Z" fill="white"/>
<path d="M405.342 418.383V398H411.094C412.657 398 414.064 398.198 415.315 398.594C416.565 398.989 417.639 399.604 418.535 400.438C419.431 401.251 420.119 402.293 420.598 403.564C421.077 404.836 421.317 406.347 421.317 408.097C421.317 409.848 421.077 411.369 420.598 412.662C420.119 413.954 419.441 415.027 418.566 415.882C417.691 416.715 416.638 417.341 415.409 417.757C414.2 418.174 412.845 418.383 411.344 418.383H405.342ZM409.938 414.662H410.813C411.688 414.662 412.48 414.548 413.189 414.319C413.898 414.089 414.502 413.725 415.002 413.224C415.502 412.703 415.888 412.026 416.159 411.192C416.451 410.359 416.597 409.327 416.597 408.097C416.597 406.889 416.451 405.878 416.159 405.065C415.888 404.231 415.502 403.575 415.002 403.095C414.502 402.595 413.898 402.241 413.189 402.032C412.48 401.824 411.688 401.72 410.813 401.72H409.938V414.662Z" fill="white"/>
<path d="M425.186 418.383V398H438.035V401.876H429.782V406.597H436.847V410.473H429.782V418.383H425.186Z" fill="white"/>
<path d="M353.955 204.662C353.955 201.638 356.407 199.186 359.431 199.186H419.669L441.574 221.091V303.233C441.574 306.257 439.122 308.709 436.097 308.709H359.431C356.407 308.709 353.955 306.257 353.955 303.233V204.662Z" fill="white"/>
<path fill-rule="evenodd" clip-rule="evenodd" d="M359.433 305.971H436.099C437.612 305.971 438.837 304.745 438.837 303.233V222.225L418.537 201.924H359.433C357.921 201.924 356.695 203.15 356.695 204.662V303.233C356.695 304.745 357.921 305.971 359.433 305.971ZM419.671 199.186H359.433C356.409 199.186 353.957 201.638 353.957 204.662V303.233C353.957 306.257 356.409 308.709 359.433 308.709H436.099C439.124 308.709 441.576 306.257 441.576 303.233V221.091L419.671 199.186Z" fill="#E8E8E8"/>
<path d="M419.671 199.186L441.576 221.091H419.671V199.186Z" fill="#E8E8E8"/>
<rect x="342.639" y="254.398" width="69.1798" height="37.4319" rx="5.47615" fill="#000"/>
<path d="M350.93 283.512V263.875H356.472C357.977 263.875 359.333 264.065 360.538 264.447C361.742 264.828 362.776 265.421 363.64 266.224C364.503 267.007 365.166 268.011 365.628 269.236C366.09 270.461 366.32 271.916 366.32 273.603C366.32 275.29 366.09 276.755 365.628 278C365.166 279.245 364.513 280.279 363.67 281.103C362.827 281.906 361.813 282.508 360.628 282.91C359.463 283.311 358.158 283.512 356.713 283.512H350.93ZM355.357 279.928H356.2C357.044 279.928 357.807 279.818 358.49 279.597C359.172 279.376 359.755 279.024 360.236 278.542C360.718 278.041 361.09 277.388 361.351 276.585C361.632 275.782 361.772 274.788 361.772 273.603C361.772 272.438 361.632 271.465 361.351 270.681C361.09 269.878 360.718 269.246 360.236 268.784C359.755 268.302 359.172 267.961 358.49 267.76C357.807 267.559 357.044 267.459 356.2 267.459H355.357V279.928Z" fill="white"/>
<path d="M378.03 283.874C376.704 283.874 375.49 283.643 374.385 283.181C373.301 282.699 372.367 282.016 371.584 281.133C370.801 280.249 370.189 279.175 369.747 277.91C369.325 276.645 369.114 275.209 369.114 273.603C369.114 271.997 369.325 270.571 369.747 269.326C370.189 268.061 370.801 267.007 371.584 266.164C372.367 265.3 373.301 264.648 374.385 264.206C375.49 263.744 376.704 263.513 378.03 263.513C379.355 263.513 380.56 263.744 381.644 264.206C382.748 264.648 383.692 265.3 384.475 266.164C385.258 267.027 385.86 268.091 386.282 269.356C386.724 270.601 386.945 272.017 386.945 273.603C386.945 275.209 386.724 276.645 386.282 277.91C385.86 279.175 385.258 280.249 384.475 281.133C383.692 282.016 382.748 282.699 381.644 283.181C380.56 283.643 379.355 283.874 378.03 283.874ZM378.03 280.048C379.375 280.048 380.439 279.476 381.222 278.332C382.005 277.167 382.397 275.591 382.397 273.603C382.397 271.635 382.005 270.099 381.222 268.995C380.439 267.89 379.375 267.338 378.03 267.338C376.684 267.338 375.62 267.89 374.837 268.995C374.054 270.099 373.662 271.635 373.662 273.603C373.662 275.591 374.054 277.167 374.837 278.332C375.62 279.476 376.684 280.048 378.03 280.048Z" fill="white"/>
<path d="M398.829 283.874C397.585 283.874 396.41 283.663 395.306 283.241C394.201 282.799 393.227 282.157 392.384 281.313C391.561 280.47 390.908 279.426 390.426 278.181C389.944 276.916 389.703 275.46 389.703 273.814C389.703 272.187 389.954 270.742 390.456 269.477C390.958 268.192 391.631 267.107 392.474 266.224C393.318 265.34 394.302 264.668 395.426 264.206C396.55 263.744 397.735 263.513 398.98 263.513C400.245 263.513 401.38 263.774 402.384 264.296C403.387 264.798 404.221 265.391 404.883 266.073L402.534 268.904C402.032 268.443 401.5 268.071 400.938 267.79C400.396 267.489 399.773 267.338 399.07 267.338C398.408 267.338 397.775 267.489 397.173 267.79C396.591 268.071 396.079 268.483 395.637 269.025C395.215 269.567 394.874 270.23 394.613 271.013C394.372 271.796 394.251 272.679 394.251 273.663C394.251 275.691 394.683 277.267 395.547 278.392C396.41 279.496 397.564 280.048 399.01 280.048C399.813 280.048 400.526 279.878 401.149 279.536C401.791 279.175 402.353 278.733 402.835 278.211L405.185 280.982C403.538 282.91 401.42 283.874 398.829 283.874Z" fill="white"/>
<g filter="url(#filter0_d)">
<path d="M211.758 365.929C211.758 394.58 188.531 417.807 159.879 417.807C131.227 417.807 108 394.58 108 365.929C108 337.277 131.227 314.05 159.879 314.05C188.531 314.05 211.758 337.277 211.758 365.929Z" fill="#000"/>
<path d="M182.935 360.214C186.778 362.433 186.778 367.98 182.935 370.198L151.592 388.295C147.749 390.513 142.945 387.74 142.945 383.303L142.945 347.11C142.945 342.673 147.749 339.9 151.592 342.118L182.935 360.214Z" fill="white"/>
</g>
<defs>
<filter id="filter0_d" x="92.2394" y="298.289" width="135.279" height="135.279" filterUnits="userSpaceOnUse" color-interpolation-filters="sRGB">
<feFlood flood-opacity="0" result="BackgroundImageFix"/>
<feColorMatrix in="SourceAlpha" type="matrix" values="0 0 0 0 0 0 0 0 0 0 0 0 0 0 0 0 0 0 127 0"/>
<feOffset/>
<feGaussianBlur stdDeviation="7.88032"/>
<feColorMatrix type="matrix" values="0 0 0 0 0.101961 0 0 0 0 0.101961 0 0 0 0 0.101961 0 0 0 0.2 0"/>
<feBlend mode="normal" in2="BackgroundImageFix" result="effect1_dropShadow"/>
<feBlend mode="normal" in="SourceGraphic" in2="effect1_dropShadow" result="shape"/>
</filter>
</defs>
</svg>
